<svg width="277" height="233" viewBox="0 0 277 233" fill="none" xmlns="http://www.w3.org/2000/svg">
<g clip-path="url(#clip0_29_69)">
<path d="M25.463 119.798C34.2078 114.968 43.4366 116.56 47.2377 105.453C53.7604 86.3929 48.5413 65.6552 59.7711 47.6033C74.372 24.1332 108.456 18.1635 133.425 23.0822C159.411 28.2015 181.755 44.8478 208.188 48.4486C219.037 49.9264 230.59 48.9817 240.544 44.0983C253.829 37.5815 264.483 27.7276 280.088 28.3102C305.274 29.2507 324.942 37.6326 330.546 64.4605C334.439 83.0923 328.404 94.7261 319.565 110.494C313.348 121.584 312.846 131.099 316.061 143.209C319.612 156.583 323.042 173.662 314.544 185.826C307.056 196.545 295.288 204.145 282.679 206.943C266.673 210.495 137.669 199.15 117.682 202.419C103.899 204.673 83.3491 201.083 78.9149 185.303C77.7522 181.165 77.7977 176.655 75.9145 172.799C71.5567 163.878 60.5161 164.728 52.2496 163.922C43.3095 163.051 33.9427 158.724 27.0211 152.986C22.4198 149.171 18.7027 143.996 17.5818 138.077C16.2655 131.126 19.1701 123.275 25.463 119.798Z" fill="url(#paint0_linear_29_69)"/>
<path d="M142.329 89.915C142.305 88.6412 141.265 87.5931 139.989 87.5931H91.7673C90.4744 87.5931 89.2048 88.6959 89.2048 89.987V205.377C89.2048 205.999 89.5631 206.594 90.0035 207.033C90.444 207.471 91.0963 207.717 91.7184 207.715L142.137 207.578C142.764 207.576 143.378 207.323 143.817 206.875C144.256 206.427 144.503 205.808 144.491 205.182L142.329 89.915Z" fill="url(#paint1_linear_29_69)"/>
<g opacity="0.5">
<path d="M106.817 101.19L93.0795 101.172L92.9706 94.141H106.721L106.817 101.19Z" fill="white"/>
<path d="M122.215 101.187L108.491 101.169L108.397 94.141H122.134L122.215 101.187Z" fill="white"/>
<path d="M137.597 101.183L123.887 101.165L123.808 94.141H137.531L137.597 101.183Z" fill="white"/>
<path d="M106.988 113.811L93.2752 113.82L93.1666 106.835L106.893 106.829L106.988 113.811Z" fill="white"/>
<path d="M122.359 113.801L108.66 113.81L108.566 106.828L122.279 106.823L122.359 113.801Z" fill="white"/>
<path d="M137.715 113.791L124.029 113.8L123.951 106.822L137.65 106.816L137.715 113.791Z" fill="white"/>
<path d="M107.16 126.345L93.4701 126.359L93.3619 119.398L107.065 119.387L107.16 126.345Z" fill="white"/>
<path d="M122.504 126.329L108.828 126.343L108.735 119.386L122.424 119.374L122.504 126.329Z" fill="white"/>
<path d="M137.833 126.313L124.171 126.327L124.092 119.373L137.767 119.362L137.833 126.313Z" fill="white"/>
<path d="M107.33 138.835L93.6644 138.855L93.5565 131.918L107.235 131.902L107.33 138.835Z" fill="white"/>
<path d="M122.648 138.813L108.996 138.833L108.903 131.899L122.568 131.883L122.648 138.813Z" fill="white"/>
<path d="M137.95 138.791L124.312 138.811L124.233 131.881L137.885 131.864L137.95 138.791Z" fill="white"/>
<path d="M107.5 151.283L93.858 151.308L93.7505 144.395L107.406 144.373L107.5 151.283Z" fill="white"/>
<path d="M122.791 151.254L109.163 151.28L109.07 144.37L122.711 144.348L122.791 151.254Z" fill="white"/>
<path d="M138.067 151.226L124.452 151.251L124.374 144.345L138.002 144.323L138.067 151.226Z" fill="white"/>
<path d="M107.669 163.687L94.0509 163.718L93.9438 156.829L107.575 156.801L107.669 163.687Z" fill="white"/>
<path d="M122.934 163.652L109.329 163.683L109.237 156.798L122.855 156.77L122.934 163.652Z" fill="white"/>
<path d="M138.183 163.618L124.592 163.649L124.514 156.766L138.119 156.739L138.183 163.618Z" fill="white"/>
<path d="M107.838 176.049L94.2432 176.085L94.1365 169.219L107.744 169.186L107.838 176.049Z" fill="white"/>
<path d="M123.076 176.008L109.495 176.044L109.403 169.182L122.997 169.149L123.076 176.008Z" fill="white"/>
<path d="M138.299 175.967L124.732 176.003L124.654 169.145L138.235 169.112L138.299 175.967Z" fill="white"/>
<path d="M108.006 188.368L94.4349 188.409L94.3284 181.568L107.913 181.529L108.006 188.368Z" fill="white"/>
<path d="M123.218 188.321L109.66 188.362L109.569 181.524L123.139 181.485L123.218 188.321Z" fill="white"/>
<path d="M138.415 188.274L124.871 188.316L124.794 181.481L138.351 181.442L138.415 188.274Z" fill="white"/>
<path d="M108.174 200.644L94.6257 200.692L94.5197 193.873L108.081 193.829L108.174 200.644Z" fill="white"/>
<path d="M123.36 200.592L109.825 200.639L109.734 193.824L123.281 193.78L123.36 200.592Z" fill="white"/>
<path d="M138.53 200.539L125.009 200.586L124.932 193.774L138.466 193.73L138.53 200.539Z" fill="white"/>
</g>
<path d="M91.7417 63.9462C91.7239 62.993 90.9449 62.226 89.99 62.226H32.0794C31.1118 62.226 30.084 63.0166 30.084 63.9828V198.942C30.084 199.664 30.4932 200.355 31.0045 200.864C31.516 201.374 32.27 201.659 32.9924 201.657L91.5374 201.497C92.266 201.495 92.9783 201.201 93.4879 200.681C93.9976 200.162 94.2844 199.457 94.2708 198.73L91.7417 63.9462Z" fill="#91B3FA"/>
<path d="M58.4844 71.7902L39.5404 71.7248L39.5475 69.3578L58.4702 69.4177L58.4844 71.7902Z" fill="#BDD0FB"/>
<path d="M58.5363 80.5083L39.5145 80.4216L39.5216 78.0352L58.5221 78.1161L58.5363 80.5083Z" fill="#BDD0FB"/>
<path d="M58.5888 89.2983L39.4884 89.19L39.4954 86.784L58.5743 86.8862L58.5888 89.2983Z" fill="#BDD0FB"/>
<path d="M58.6415 98.1613L39.4619 98.0312L39.4692 95.6052L58.6271 95.7293L58.6415 98.1613Z" fill="#BDD0FB"/>
<path d="M58.6948 107.098L39.4353 106.946L39.4427 104.499L58.6802 104.646L58.6948 107.098Z" fill="#BDD0FB"/>
<path d="M58.8026 125.197L39.3815 124.999L39.3888 122.512L58.7877 122.703L58.8026 125.197Z" fill="#BDD0FB"/>
<path d="M58.9678 152.923L39.2989 152.654L39.3065 150.103L58.9525 150.365L58.9678 152.923Z" fill="#BDD0FB"/>
<path d="M58.7484 116.11L39.4085 115.935L39.4158 113.468L58.7337 113.637L58.7484 116.11Z" fill="#BDD0FB"/>
<path d="M58.8572 134.361L39.3542 134.14L39.3617 131.631L58.8422 131.846L58.8572 134.361Z" fill="#BDD0FB"/>
<path d="M58.9123 143.603L39.3266 143.358L39.3342 140.828L58.8972 141.067L58.9123 143.603Z" fill="#BDD0FB"/>
<path d="M59.0237 162.323L39.2709 162.029L39.2787 159.456L59.0083 159.744L59.0237 162.323Z" fill="#BDD0FB"/>
<path d="M59.0802 171.804L39.2427 171.485L39.2505 168.89L59.0648 169.202L59.0802 171.804Z" fill="#BDD0FB"/>
<path d="M59.1373 181.366L39.2143 181.022L39.2221 178.405L59.1216 178.742L59.1373 181.366Z" fill="#BDD0FB"/>
<path d="M59.1947 191.011L39.1856 190.641L39.1934 188.001L59.1789 188.364L59.1947 191.011Z" fill="#BDD0FB"/>
<path d="M83.3214 71.8761L64.2586 71.8101L64.238 69.4359L83.2793 69.4959L83.3214 71.8761Z" fill="#BDD0FB"/>
<path d="M83.476 80.6218L64.3343 80.5347L64.3136 78.1407L83.4335 78.222L83.476 80.6218Z" fill="#BDD0FB"/>
<path d="M83.6319 89.4402L64.4106 89.3312L64.3897 86.9174L83.5891 87.0204L83.6319 89.4402Z" fill="#BDD0FB"/>
<path d="M83.789 98.3319L64.4877 98.201L64.4666 95.7672L83.7459 95.892L83.789 98.3319Z" fill="#BDD0FB"/>
<path d="M83.9477 107.298L64.5653 107.145L64.5441 104.69L83.9042 104.838L83.9477 107.298Z" fill="#BDD0FB"/>
<path d="M84.2687 125.457L64.7226 125.257L64.701 122.762L84.2244 122.955L84.2687 125.457Z" fill="#BDD0FB"/>
<path d="M84.7606 153.276L64.9636 153.005L64.9414 150.445L84.7152 150.71L84.7606 153.276Z" fill="#BDD0FB"/>
<path d="M84.1075 116.339L64.6437 116.163L64.6222 113.688L84.0637 113.858L84.1075 116.339Z" fill="#BDD0FB"/>
<path d="M84.4312 134.652L64.8022 134.429L64.7804 131.912L84.3867 132.128L84.4312 134.652Z" fill="#BDD0FB"/>
<path d="M84.5952 143.925L64.8825 143.678L64.8605 141.14L84.5503 141.38L84.5952 143.925Z" fill="#BDD0FB"/>
<path d="M84.9273 162.709L65.0453 162.413L65.0228 159.831L84.8816 160.12L84.9273 162.709Z" fill="#BDD0FB"/>
<path d="M85.0956 172.222L65.1276 171.901L65.105 169.297L85.0493 169.611L85.0956 172.222Z" fill="#BDD0FB"/>
<path d="M85.2651 181.818L65.2108 181.471L65.188 178.845L85.2186 179.185L85.2651 181.818Z" fill="#BDD0FB"/>
<path d="M85.4364 191.497L65.2946 191.124L65.2716 188.475L85.3894 188.841L85.4364 191.497Z" fill="#BDD0FB"/>
<mask id="mask0_29_69" style="mask-type:luminance" maskUnits="userSpaceOnUse" x="150" y="42" width="185" height="163">
<path d="M334.254 42.8241H150.64V204.542H334.254V42.8241Z" fill="white"/>
</mask>
<g mask="url(#mask0_29_69)">
<path d="M269.352 70.2887C269.32 68.6151 267.962 67.2377 266.297 67.2377H203.366C201.679 67.2377 200.022 68.6868 200.022 70.3833V222.017C200.022 222.833 200.49 223.616 201.064 224.192C201.639 224.769 202.491 225.091 203.302 225.089L269.1 224.908C269.919 224.906 270.72 224.574 271.293 223.985C271.866 223.397 272.189 222.583 272.173 221.76L269.352 70.2887Z" fill="#91B3FA"/>
<path d="M223.006 85.106L205.079 85.0817L204.936 75.8422H222.881L223.006 85.106Z" fill="#BDD0FB"/>
<path d="M243.101 85.1013L225.191 85.077L225.069 75.8422H242.996L243.101 85.1013Z" fill="#BDD0FB"/>
<path d="M263.176 85.0966L245.284 85.0725L245.181 75.8422H263.09L263.176 85.0966Z" fill="#BDD0FB"/>
<path d="M223.23 101.69L205.334 101.702L205.192 92.5229L223.106 92.5154L223.23 101.69Z" fill="#BDD0FB"/>
<path d="M243.29 101.678L225.412 101.689L225.289 92.5146L243.185 92.5071L243.29 101.678Z" fill="#BDD0FB"/>
<path d="M263.33 101.665L245.469 101.676L245.367 92.5062L263.244 92.4987L263.33 101.665Z" fill="#BDD0FB"/>
<path d="M223.454 118.161L205.588 118.18L205.447 109.033L223.33 109.018L223.454 118.161Z" fill="#BDD0FB"/>
<path d="M243.478 118.14L225.631 118.159L225.509 109.016L243.374 109.001L243.478 118.14Z" fill="#BDD0FB"/>
<path d="M263.484 118.119L245.654 118.138L245.552 108.999L263.398 108.985L263.484 118.119Z" fill="#BDD0FB"/>
<path d="M223.676 134.575L205.842 134.601L205.701 125.485L223.553 125.463L223.676 134.575Z" fill="#BDD0FB"/>
<path d="M243.666 134.545L225.85 134.571L225.729 125.46L243.562 125.438L243.666 134.545Z" fill="#BDD0FB"/>
<path d="M263.637 134.516L245.838 134.542L245.736 125.436L263.552 125.414L263.637 134.516Z" fill="#BDD0FB"/>
<path d="M223.898 150.932L206.094 150.965L205.954 141.881L223.775 141.851L223.898 150.932Z" fill="#BDD0FB"/>
<path d="M243.853 150.894L226.068 150.927L225.947 141.848L243.749 141.818L243.853 150.894Z" fill="#BDD0FB"/>
<path d="M263.789 150.857L246.021 150.89L245.919 141.815L263.704 141.786L263.789 150.857Z" fill="#BDD0FB"/>
<path d="M224.119 167.232L206.346 167.273L206.206 158.22L223.996 158.183L224.119 167.232Z" fill="#BDD0FB"/>
<path d="M244.04 167.187L226.285 167.227L226.164 158.179L243.936 158.142L244.04 167.187Z" fill="#BDD0FB"/>
<path d="M263.941 167.141L246.204 167.182L246.103 158.138L263.857 158.101L263.941 167.141Z" fill="#BDD0FB"/>
<path d="M224.339 183.476L206.597 183.524L206.458 174.502L224.217 174.459L224.339 183.476Z" fill="#BDD0FB"/>
<path d="M244.226 183.423L226.501 183.471L226.381 174.453L244.123 174.409L244.226 183.423Z" fill="#BDD0FB"/>
<path d="M264.093 183.369L246.386 183.417L246.285 174.404L264.008 174.361L264.093 183.369Z" fill="#BDD0FB"/>
<path d="M224.558 199.665L206.847 199.72L206.708 190.729L224.437 190.678L224.558 199.665Z" fill="#BDD0FB"/>
<path d="M244.411 199.603L226.717 199.658L226.598 190.672L244.308 190.621L244.411 199.603Z" fill="#BDD0FB"/>
<path d="M264.243 199.542L246.567 199.597L246.467 190.615L264.16 190.564L264.243 199.542Z" fill="#BDD0FB"/>
<path d="M213.689 118.406C213.662 117.47 212.47 116.699 211.008 116.699H155.772C154.29 116.699 152.836 117.51 152.836 118.459V203.321C152.836 203.778 153.247 204.216 153.751 204.538C154.256 204.861 155.003 205.041 155.715 205.04L213.468 204.939C214.187 204.938 214.891 204.751 215.393 204.422C215.896 204.093 216.179 203.638 216.166 203.177L213.689 118.406Z" fill="url(#paint2_linear_29_69)"/>
<g opacity="0.5">
<path d="M173.01 126.699L157.275 126.685L157.15 121.514H172.901L173.01 126.699Z" fill="white"/>
<path d="M190.648 126.696L174.928 126.683L174.821 121.514H190.556L190.648 126.696Z" fill="white"/>
<path d="M208.268 126.694L192.564 126.68L192.474 121.514H208.193L208.268 126.694Z" fill="white"/>
<path d="M173.207 135.98L157.499 135.987L157.374 130.85L173.098 130.846L173.207 135.98Z" fill="white"/>
<path d="M190.814 135.973L175.122 135.979L175.014 130.845L190.722 130.841L190.814 135.973Z" fill="white"/>
<path d="M208.404 135.966L192.727 135.972L192.637 130.84L208.329 130.836L208.404 135.966Z" fill="white"/>
<path d="M173.403 145.198L157.722 145.209L157.598 140.089L173.294 140.081L173.403 145.198Z" fill="white"/>
<path d="M190.98 145.186L175.314 145.197L175.207 140.08L190.888 140.072L190.98 145.186Z" fill="white"/>
<path d="M208.538 145.174L192.889 145.185L192.799 140.071L208.464 140.062L208.538 145.174Z" fill="white"/>
<path d="M173.598 154.384L157.944 154.398L157.821 149.297L173.49 149.285L173.598 154.384Z" fill="white"/>
<path d="M191.144 154.368L175.506 154.382L175.4 149.283L191.053 149.271L191.144 154.368Z" fill="white"/>
<path d="M208.673 154.351L193.05 154.366L192.961 149.269L208.598 149.257L208.673 154.351Z" fill="white"/>
<path d="M173.793 163.538L158.166 163.557L158.043 158.473L173.685 158.456L173.793 163.538Z" fill="white"/>
<path d="M191.308 163.517L175.698 163.536L175.591 158.454L191.217 158.438L191.308 163.517Z" fill="white"/>
<path d="M208.807 163.496L193.211 163.515L193.122 158.436L208.732 158.419L208.807 163.496Z" fill="white"/>
<path d="M173.987 172.66L158.387 172.683L158.264 167.617L173.879 167.596L173.987 172.66Z" fill="white"/>
<path d="M191.472 172.635L175.888 172.658L175.782 167.594L191.381 167.573L191.472 172.635Z" fill="white"/>
<path d="M208.94 172.61L193.372 172.632L193.283 167.571L208.866 167.55L208.94 172.61Z" fill="white"/>
<path d="M174.18 181.752L158.608 181.778L158.485 176.729L174.073 176.705L174.18 181.752Z" fill="white"/>
<path d="M191.635 181.722L176.078 181.748L175.973 176.702L191.545 176.677L191.635 181.722Z" fill="white"/>
<path d="M209.073 181.692L193.531 181.718L193.443 176.674L208.999 176.65L209.073 181.692Z" fill="white"/>
<path d="M174.373 190.811L158.827 190.842L158.705 185.811L174.266 185.782L174.373 190.811Z" fill="white"/>
<path d="M191.798 190.777L176.267 190.808L176.162 185.779L191.708 185.75L191.798 190.777Z" fill="white"/>
<path d="M209.206 190.743L193.691 190.773L193.602 185.747L209.132 185.718L209.206 190.743Z" fill="white"/>
<path d="M174.565 199.84L159.046 199.875L158.924 194.86L174.458 194.828L174.565 199.84Z" fill="white"/>
<path d="M191.96 199.801L176.456 199.836L176.352 194.824L191.87 194.792L191.96 199.801Z" fill="white"/>
<path d="M209.338 199.763L193.85 199.797L193.761 194.788L209.264 194.755L209.338 199.763Z" fill="white"/>
</g>
<path d="M326.623 116.069C326.605 115.452 325.804 114.956 324.822 114.956H265.275C264.28 114.956 263.223 115.468 263.223 116.093V203.481C263.223 203.948 263.643 204.396 264.169 204.725C264.695 205.055 265.471 205.24 266.213 205.239L326.413 205.135C327.162 205.134 327.895 204.944 328.419 204.607C328.943 204.27 329.238 203.814 329.223 203.343L326.623 116.069Z" fill="#91B3FA"/>
<path d="M292.426 121.149L272.946 121.106L272.954 119.574L292.411 119.612L292.426 121.149Z" fill="#BDD0FB"/>
<path d="M292.479 126.794L272.92 126.737L272.927 125.192L292.465 125.245L292.479 126.794Z" fill="#BDD0FB"/>
<path d="M292.533 132.485L272.893 132.415L272.9 130.857L292.518 130.923L292.533 132.485Z" fill="#BDD0FB"/>
<path d="M292.587 138.224L272.866 138.14L272.873 136.569L292.572 136.649L292.587 138.224Z" fill="#BDD0FB"/>
<path d="M292.642 144.011L272.838 143.912L272.846 142.328L292.627 142.423L292.642 144.011Z" fill="#BDD0FB"/>
<path d="M292.753 155.73L272.783 155.602L272.791 153.991L292.738 154.115L292.753 155.73Z" fill="#BDD0FB"/>
<path d="M292.923 173.683L272.698 173.509L272.706 171.857L292.907 172.027L292.923 173.683Z" fill="#BDD0FB"/>
<path d="M292.697 149.846L272.811 149.732L272.818 148.135L292.682 148.245L292.697 149.846Z" fill="#BDD0FB"/>
<path d="M292.809 161.664L272.755 161.52L272.763 159.896L292.794 160.036L292.809 161.664Z" fill="#BDD0FB"/>
<path d="M292.866 167.648L272.727 167.489L272.734 165.851L292.85 166.006L292.866 167.648Z" fill="#BDD0FB"/>
<path d="M292.98 179.77L272.669 179.579L272.677 177.913L292.965 178.099L292.98 179.77Z" fill="#BDD0FB"/>
<path d="M293.038 185.908L272.64 185.702L272.648 184.021L293.023 184.224L293.038 185.908Z" fill="#BDD0FB"/>
<path d="M293.097 192.1L272.611 191.877L272.619 190.182L293.081 190.401L293.097 192.1Z" fill="#BDD0FB"/>
<path d="M293.156 198.345L272.581 198.106L272.589 196.396L293.14 196.632L293.156 198.345Z" fill="#BDD0FB"/>
</g>
<path d="M54.4419 98.2907C52.6128 98.6928 50.7493 99.5027 49.9765 100.602C46.4907 105.564 50.7127 113.296 51.9934 118.283C54.1937 126.85 54.4576 135.987 51.7516 144.471C48.8195 153.664 46.7292 162.79 47.064 172.527C47.2366 177.543 48.2078 182.939 51.0769 187.195C56.4992 195.237 72.2478 192.52 75.9275 184.384C78.8623 177.895 78.5704 170.517 77.4276 163.659C75.5052 152.124 71.7332 140.996 69.7374 129.477C68.2112 120.669 70.638 103.625 60.8269 98.9277C59.0326 98.0687 56.3822 97.8639 54.4419 98.2907Z" fill="#BDD0FB"/>
<path d="M59.9838 205.527C59.9604 205.527 59.9368 205.524 59.9133 205.516C59.7921 205.477 59.7252 205.348 59.7641 205.227C63.8065 192.618 66.0924 179.34 66.5584 165.763C66.9311 154.9 66.1463 143.821 64.2255 132.836C61.608 117.866 57.3018 106.053 55.3903 101.897C55.3372 101.782 55.3879 101.645 55.5036 101.592C55.6194 101.539 55.7562 101.59 55.8092 101.705C55.8648 101.826 61.3944 113.978 64.6769 132.741C66.6045 143.76 67.3926 154.872 67.0192 165.769C66.5526 179.392 64.2593 192.714 60.2029 205.367C60.1718 205.465 60.0812 205.527 59.9838 205.527Z" fill="#91B3FA"/>
<path d="M53.3056 182.532C52.628 177.664 49.3418 172.82 47.0302 168.145C45.808 165.673 44.8322 163.15 44.4705 160.402C44.1109 157.67 44.4991 154.485 42.5939 152.221C38.7557 147.662 34.0432 151.653 32.1103 156.516C29.8675 162.159 31.106 169.926 31.4497 176.088C31.6568 179.803 31.4726 183.73 32.0893 187.395C33.1109 193.467 35.647 197.14 39.27 199.054C42.745 200.89 47.0065 200.22 49.7542 197.412C52.2364 194.876 54.3989 190.385 53.3056 182.532Z" fill="#BDD0FB"/>
<path d="M47.2797 207.875C47.1944 207.875 47.1127 207.827 47.0725 207.746C47.0397 207.679 43.7463 200.922 40.7983 191.126C38.0765 182.081 35.0989 168.516 36.3712 155.26C36.3832 155.133 36.4949 155.039 36.6226 155.053C36.7493 155.065 36.8422 155.177 36.8301 155.304C35.565 168.486 38.5297 181.988 41.2398 190.993C44.1771 200.754 47.4538 207.477 47.4866 207.543C47.5426 207.658 47.4952 207.795 47.381 207.851C47.3483 207.867 47.3136 207.875 47.2797 207.875Z" fill="#91B3FA"/>
<path d="M294.874 146.508C293.687 144.037 292.837 141.45 292.639 138.634C292.139 131.538 296.271 125.003 299.305 118.893C302.095 113.278 304.168 104.91 294.756 105.655C287.258 106.248 278.443 113.71 277.437 121.491C276.247 130.7 280.736 142.313 275.413 150.678C267.967 162.381 262.595 159.699 262.595 179.447C262.595 187.885 267.276 192.54 272.637 195.103C281.099 199.15 291.189 197.515 297.932 190.999C303.888 185.243 307.429 176.969 306.232 168.661C305.022 160.271 298.431 153.908 294.874 146.508Z" fill="#BDD0FB"/>
<path d="M71.2747 97.6844V195.296C71.2747 203.326 77.4521 209.893 85.2016 210.1C119.621 211.019 240.001 213.248 272.766 212.748C278.397 212.662 282.959 207.994 283.122 202.163C283.753 179.486 284.779 124.956 280.982 99.6405C280.183 94.3092 275.838 90.3226 270.632 90.1502C241.794 89.1946 114.182 86.1601 81.4328 86.922C75.7848 87.0533 71.2747 91.8323 71.2747 97.6844Z" fill="url(#paint3_linear_29_69)"/>
<path d="M77.1877 97.2093V189.947C77.1877 194.636 80.8209 198.456 85.3464 198.526L268.052 200.864C272.539 200.934 276.217 197.194 276.233 192.546L276.539 100.637C276.551 97.3132 273.995 94.5902 270.787 94.5093L83.7306 90.5949C80.1431 90.5044 77.1877 93.4922 77.1877 97.2093Z" fill="url(#paint4_linear_29_69)"/>
<path d="M277.609 204.556C277.608 204.556 277.607 204.556 277.606 204.556L77.185 201.018C77.1001 201.017 77.0326 200.947 77.0341 200.862C77.0357 200.777 77.1018 200.711 77.1905 200.711L277.612 204.249C277.697 204.25 277.764 204.32 277.763 204.405C277.761 204.489 277.693 204.556 277.609 204.556Z" fill="#BDD0FB"/>
<mask id="mask1_29_69" style="mask-type:luminance" maskUnits="userSpaceOnUse" x="77" y="90" width="200" height="111">
<path d="M77.3309 97.1501V189.888C77.3309 194.576 80.9641 198.396 85.4897 198.467L268.195 200.805C272.682 200.874 276.36 197.135 276.377 192.487L276.682 100.578C276.694 97.2542 274.138 94.5312 270.931 94.4502L83.8737 90.5356C80.2863 90.4452 77.3309 93.433 77.3309 97.1501Z" fill="white"/>
</mask>
<g mask="url(#mask1_29_69)">
<path d="M77.3309 97.1501V189.888C77.3309 194.576 80.9641 198.396 85.4897 198.467L268.195 200.805C272.682 200.874 276.36 197.135 276.377 192.487L276.682 100.578C276.694 97.2542 274.138 94.5312 270.931 94.4502L83.8737 90.5356C80.2863 90.4452 77.3309 93.433 77.3309 97.1501Z" fill="url(#paint5_linear_29_69)"/>
</g>
<mask id="mask2_29_69" style="mask-type:luminance" maskUnits="userSpaceOnUse" x="77" y="90" width="200" height="111">
<path d="M77.3309 97.1501V189.888C77.3309 194.576 80.9641 198.396 85.4897 198.467L268.195 200.805C272.682 200.874 276.36 197.135 276.377 192.487L276.682 100.578C276.694 97.2542 274.138 94.5312 270.931 94.4502L83.8737 90.5356C80.2863 90.4452 77.3309 93.433 77.3309 97.1501Z" fill="white"/>
</mask>
<g mask="url(#mask2_29_69)">
<path d="M74.7245 90.5336L73.6368 151.016H129.099L127.825 138.827L74.7245 90.5336Z" fill="#7D97F4"/>
</g>
<mask id="mask3_29_69" style="mask-type:luminance" maskUnits="userSpaceOnUse" x="77" y="90" width="200" height="111">
<path d="M77.3309 97.1501V189.888C77.3309 194.576 80.9641 198.396 85.4897 198.467L268.195 200.805C272.682 200.874 276.36 197.135 276.377 192.487L276.682 100.578C276.694 97.2542 274.138 94.5312 270.931 94.4502L83.8737 90.5356C80.2863 90.4452 77.3309 93.433 77.3309 97.1501Z" fill="white"/>
</mask>
<g mask="url(#mask3_29_69)">
<path d="M237.299 102.66L211.327 115.774L213.009 157.691L238.527 173.859L237.299 102.66Z" fill="url(#paint6_linear_29_69)"/>
</g>
<mask id="mask4_29_69" style="mask-type:luminance" maskUnits="userSpaceOnUse" x="77" y="90" width="200" height="111">
<path d="M77.3309 97.1501V189.888C77.3309 194.576 80.9641 198.396 85.4897 198.467L268.195 200.805C272.682 200.874 276.36 197.135 276.377 192.487L276.682 100.578C276.694 97.2542 274.138 94.5312 270.931 94.4502L83.8737 90.5356C80.2863 90.4452 77.3309 93.433 77.3309 97.1501Z" fill="white"/>
</mask>
<g mask="url(#mask4_29_69)">
<path d="M71.0831 183.201L129.099 183.672L127.309 203.14H80.3593L71.0831 183.201Z" fill="#7D97F4"/>
</g>
<mask id="mask5_29_69" style="mask-type:luminance" maskUnits="userSpaceOnUse" x="77" y="90" width="200" height="111">
<path d="M77.3309 97.1501V189.888C77.3309 194.576 80.9641 198.396 85.4897 198.467L268.195 200.805C272.682 200.874 276.36 197.135 276.377 192.487L276.682 100.578C276.694 97.2542 274.138 94.5312 270.931 94.4502L83.8737 90.5356C80.2863 90.4452 77.3309 93.433 77.3309 97.1501Z" fill="white"/>
</mask>
<g mask="url(#mask5_29_69)">
<path d="M266.67 88.6871V193.249L278.619 200.806V90.5711L266.67 88.6871Z" fill="#7D97F4"/>
</g>
<mask id="mask6_29_69" style="mask-type:luminance" maskUnits="userSpaceOnUse" x="77" y="90" width="200" height="111">
<path d="M77.3309 97.1501V189.888C77.3309 194.576 80.9641 198.396 85.4897 198.467L268.195 200.805C272.682 200.874 276.36 197.135 276.377 192.487L276.682 100.578C276.694 97.2542 274.138 94.5312 270.931 94.4502L83.8737 90.5356C80.2863 90.4452 77.3309 93.433 77.3309 97.1501Z" fill="white"/>
</mask>
<g mask="url(#mask6_29_69)">
<path d="M131.434 202.24H126.671V140.5L72.4095 88.3434L75.6852 84.9489L131.434 138.496V202.24Z" fill="white"/>
<path d="M213.637 206.69H208.874V117.72L177.146 89.9642L130.825 142.524L127.297 139.412L176.73 83.3282L213.637 115.582V206.69Z" fill="white"/>
<path d="M129.129 148.692H71.0486V153.449H129.129V148.692Z" fill="white"/>
<path d="M129.129 180.146H71.0486V184.749H129.129V180.146Z" fill="white"/>
<path d="M211.333 167.718H129.129V172.474H211.333V167.718Z" fill="white"/>
<path d="M257.351 86.6404L210.113 114.625L212.519 118.675L259.757 90.6909L257.351 86.6404Z" fill="white"/>
<path d="M212.621 154.546L210.028 158.48L279.523 204.156L282.116 200.222L212.621 154.546Z" fill="white"/>
<path d="M240.834 100.515H236.071V174.469H240.834V100.515Z" fill="white"/>
<path d="M268.952 83.4837H264.343V191.5H268.952V83.4837Z" fill="white"/>
<path d="M162.932 100.361H91.6379V105.118H162.932V100.361Z" fill="white"/>
<path d="M191.973 170.019H187.209V206.69H191.973V170.019Z" fill="white"/>
<path d="M129.162 142.825L129.011 138.117L213.637 135.84V140.561H211.388L211.391 140.645L129.162 142.825Z" fill="white"/>
</g>
<path d="M291.385 210.756C291.385 213.51 289.15 215.742 286.392 215.742H69.1279C66.3699 215.742 64.1342 213.51 64.1342 210.756C64.1342 208.002 66.3699 205.769 69.1279 205.769H286.392C289.15 205.769 291.385 208.002 291.385 210.756Z" fill="url(#paint7_linear_29_69)"/>
<path d="M177.79 119.161C196.936 119.161 212.458 103.661 212.458 84.5423C212.458 65.423 196.936 49.9238 177.79 49.9238C158.643 49.9238 143.122 65.423 143.122 84.5423C143.122 103.661 158.643 119.161 177.79 119.161Z" fill="url(#paint8_linear_29_69)"/>
<path d="M212.394 81.796H177.79H143.122C143.122 81.796 140.362 101.456 171.302 154.086C172.652 156.382 175.119 157.977 177.785 157.978C180.452 157.979 182.923 156.296 184.273 154C215.21 101.365 212.394 81.796 212.394 81.796Z" fill="url(#paint9_linear_29_69)"/>
<path d="M178.451 159.324V159.433H177.785C174.767 159.433 171.951 157.818 170.434 155.239C152.349 124.475 145.721 105.044 143.348 94.1599C142.671 91.6561 142.282 89.2123 142.159 86.6959C141.95 84.1216 142.11 83.0424 142.129 82.9279L142.22 82.3768C143.617 63.7808 159.116 49.3101 177.79 49.3101C196.709 49.3101 212.348 63.9881 213.405 82.7319C213.432 82.9772 213.483 83.5998 213.463 84.6405L213.464 84.7685C213.464 88.1686 212.983 91.5366 212.035 94.7789C209.579 105.654 203.249 124.914 185.472 155.159C183.946 157.755 181.063 159.324 178.451 159.324ZM144.068 83.9439C144.06 83.9439 144.075 85.3542 144.167 86.4704L144.169 86.5417C144.284 88.9256 144.653 91.2586 145.297 93.6348L145.309 93.6934C147.648 104.43 154.206 123.648 172.171 154.205C173.327 156.173 175.81 157.398 178.117 157.399L178.451 158.406V157.401C179.527 157.401 182.72 156.169 183.886 154.185C201.55 124.133 208.106 105.035 210.411 94.3058V94.2437C211.487 91.1756 211.628 87.9876 211.628 84.7679L211.487 84.6266V84.6153C211.487 83.6131 211.437 83.0713 211.42 82.9291L211.406 82.8709C210.422 65.1786 195.655 51.3196 177.794 51.3196C159.968 51.3196 145.205 65.2242 144.189 83.0717L144.132 83.9439H144.068Z" fill="url(#paint10_linear_29_69)"/>
<path d="M177.902 104.42C188.957 104.42 197.92 95.4704 197.92 84.4306C197.92 73.3907 188.957 64.4412 177.902 64.4412C166.846 64.4412 157.884 73.3907 157.884 84.4306C157.884 95.4704 166.846 104.42 177.902 104.42Z" fill="url(#paint11_linear_29_69)"/>
<path d="M177.902 105.537C166.247 105.537 156.765 96.0686 156.765 84.4306C156.765 72.7926 166.247 63.3245 177.902 63.3245C189.556 63.3245 199.038 72.7926 199.038 84.4306C199.038 96.0686 189.556 105.537 177.902 105.537ZM177.902 65.558C167.48 65.558 159.002 74.0242 159.002 84.4306C159.002 94.8369 167.48 103.303 177.902 103.303C188.323 103.303 196.801 94.8369 196.801 84.4306C196.801 74.0242 188.323 65.558 177.902 65.558Z" fill="url(#paint12_linear_29_69)"/>
<g opacity="0.47">
<path d="M156.634 61.7468C156.54 61.7468 156.446 61.7073 156.38 61.6302C156.259 61.4898 156.275 61.2783 156.416 61.1578C162.039 56.3351 169.224 53.6792 176.646 53.6792C176.832 53.6792 176.982 53.8292 176.982 54.0143C176.982 54.1994 176.832 54.3494 176.646 54.3494C169.384 54.3494 162.355 56.948 156.853 61.6662C156.789 61.7202 156.712 61.7468 156.634 61.7468Z" fill="white"/>
</g>
<g opacity="0.47">
<path d="M145.915 85.0368C145.73 85.0368 145.579 84.8868 145.579 84.7018C145.579 78.9133 147.186 73.2663 150.227 68.3718C150.325 68.2143 150.531 68.166 150.689 68.2636C150.846 68.3612 150.895 68.5676 150.797 68.725C147.822 73.5135 146.25 79.0382 146.25 84.7018C146.25 84.8868 146.1 85.0368 145.915 85.0368Z" fill="white"/>
</g>
<g opacity="0.65">
<path d="M242.438 79.2999C240.359 79.195 238.753 77.4202 238.858 75.3443C238.963 73.2683 240.741 71.6644 242.82 71.7693C244.899 71.8743 246.505 73.6489 246.4 75.725C246.295 77.8009 244.517 79.4048 242.438 79.2999ZM242.744 73.2636C241.49 73.2004 240.418 74.1675 240.355 75.4198C240.292 76.6719 241.26 77.7422 242.514 77.8054C243.768 77.8687 244.84 76.9015 244.903 75.6493C244.967 74.3971 243.998 73.327 242.744 73.2636Z" fill="white"/>
<path d="M243.035 67.5019C247.471 67.7258 250.897 71.5112 250.673 75.9406C250.659 76.2151 250.631 76.4853 250.589 76.751C250.533 77.1086 250.82 77.4251 251.181 77.3898L252.361 77.2742C252.618 77.249 252.82 77.047 252.853 76.7907C252.883 76.5478 252.905 76.3023 252.918 76.0539C253.205 70.3887 248.822 65.5466 243.149 65.2602C242.719 65.2384 242.294 65.2449 241.876 65.2763C241.563 65.2997 241.33 65.5771 241.367 65.8886L241.504 67.0347C241.538 67.3244 241.794 67.5353 242.085 67.5139C242.398 67.4911 242.715 67.4857 243.035 67.5019Z" fill="white"/>
<path d="M243.329 61.7108C250.962 62.096 256.858 68.6106 256.472 76.2332C256.472 76.2353 256.472 76.2376 256.472 76.2397C256.455 76.5733 256.733 76.8459 257.066 76.8135L258.223 76.7001C258.413 76.5019 258.535 76.3744 258.725 76.1763C259.078 67.3914 252.256 59.9139 243.442 59.4691C242.673 59.4302 241.914 59.4493 241.168 59.5181C240.865 59.546 240.648 59.8244 240.683 60.1264L240.819 61.2695C240.854 61.5606 241.112 61.7762 241.404 61.7499C242.036 61.6933 242.678 61.6781 243.329 61.7108Z" fill="white"/>
<path d="M243.622 55.9198C254.171 56.4522 262.378 65.2363 262.292 75.6862C262.289 76.0142 262.565 76.275 262.892 76.243L264.041 76.1306C264.319 76.1033 264.537 75.8699 264.538 75.5903C264.573 63.9959 255.452 54.2694 243.735 53.678C242.635 53.6225 241.55 53.6541 240.485 53.7594C240.181 53.7895 239.964 54.0677 240 54.3702L240.135 55.5119C240.171 55.8096 240.439 56.0187 240.737 55.9896C241.683 55.8978 242.645 55.8706 243.622 55.9198Z" fill="white"/>
</g>
<path d="M164.804 176.886L166.629 163.223C166.678 162.856 166.213 162.485 165.865 162.614L152.919 167.394C152.623 167.503 152.635 167.904 152.941 168.148L154.743 169.588C154.975 169.773 155.049 170.066 154.909 170.241L146.969 180.154C146.829 180.33 146.903 180.622 147.134 180.807L152.971 185.469C153.203 185.654 153.505 185.662 153.646 185.486L161.585 175.573C161.726 175.398 162.028 175.405 162.259 175.59L164.062 177.03C164.368 177.275 164.763 177.198 164.804 176.886Z" fill="white"/>
<path d="M153.356 186.149C153.113 186.149 152.858 186.062 152.638 185.886L146.8 181.224C146.598 181.063 146.453 180.844 146.394 180.608C146.322 180.323 146.379 180.036 146.552 179.821L154.412 170.007C154.411 170.006 154.41 170.006 154.409 170.005L152.606 168.565C152.285 168.309 152.122 167.924 152.181 167.561C152.231 167.252 152.438 167.002 152.733 166.893L165.68 162.113C166.02 161.987 166.413 162.063 166.729 162.316C167.046 162.568 167.206 162.934 167.158 163.294L165.334 176.956C165.292 177.268 165.094 177.524 164.803 177.641C164.461 177.778 164.049 177.704 163.728 177.447L161.925 176.007C161.925 176.007 161.924 176.006 161.923 176.006L154.063 185.819C153.888 186.038 153.63 186.149 153.356 186.149ZM147.466 180.389C147.467 180.389 147.468 180.39 147.468 180.39L153.305 185.052C153.306 185.053 153.307 185.053 153.307 185.054L161.168 175.24C161.497 174.828 162.124 174.799 162.593 175.174L164.311 176.545L166.095 163.183C166.08 163.161 166.047 163.135 166.022 163.125L153.36 167.8L155.077 169.171C155.547 169.546 155.656 170.163 155.326 170.575L147.466 180.389ZM164.275 176.815V176.815V176.815Z" fill="url(#paint13_linear_29_69)"/>
<path d="M277.704 161.837L318.318 176.598C320.021 177.217 320.835 179.154 320.085 180.802L319.962 181.072C319.298 182.53 317.572 183.169 316.116 182.497L276.681 164.28L277.704 161.837Z" fill="url(#paint14_linear_29_69)"/>
<path opacity="0.5" d="M258.577 172.618C269.65 172.618 278.626 163.816 278.626 152.958C278.626 142.101 269.65 133.299 258.577 133.299C247.504 133.299 238.528 142.101 238.528 152.958C238.528 163.816 247.504 172.618 258.577 172.618Z" fill="white"/>
<path d="M236.727 152.958C236.727 165.04 246.715 174.834 259.036 174.834C271.357 174.834 281.345 165.04 281.345 152.958C281.345 140.877 271.357 131.083 259.036 131.083C246.715 131.083 236.727 140.877 236.727 152.958ZM240.004 152.958C240.004 142.651 248.524 134.296 259.036 134.296C269.547 134.296 278.068 142.651 278.068 152.958C278.068 163.265 269.547 171.62 259.036 171.62C248.525 171.62 240.004 163.265 240.004 152.958Z" fill="url(#paint15_linear_29_69)"/>
<path d="M279.631 155.654C279.556 155.645 279.503 155.576 279.513 155.501C279.578 154.992 279.624 154.472 279.649 153.955C279.653 153.879 279.718 153.814 279.793 153.825C279.869 153.829 279.927 153.893 279.923 153.968C279.897 154.493 279.85 155.02 279.784 155.536C279.776 155.605 279.717 155.655 279.649 155.655C279.643 155.655 279.637 155.655 279.631 155.654ZM279.361 149.426C279.112 148.039 278.713 146.675 278.174 145.371L278.174 145.371C275.003 137.688 267.49 132.724 259.036 132.724C255.093 132.724 251.26 133.817 247.952 135.886C247.888 135.926 247.803 135.907 247.763 135.843C247.723 135.779 247.742 135.694 247.806 135.654C251.158 133.558 255.041 132.45 259.036 132.45C267.602 132.45 275.214 137.481 278.428 145.267L278.428 145.267C278.973 146.589 279.378 147.972 279.63 149.377C279.644 149.452 279.594 149.523 279.52 149.536C279.512 149.538 279.503 149.538 279.495 149.538C279.43 149.538 279.373 149.492 279.361 149.426Z" fill="#91B3FA"/>
<path d="M79.8436 147.025L79.1758 146.622C79.0368 146.538 78.9923 146.357 79.0764 146.219C79.1604 146.08 79.3413 146.035 79.4803 146.119C79.4814 146.12 79.4827 146.121 79.4838 146.121L79.4891 146.125L80.141 146.536L80.1451 146.538C80.2789 146.623 80.319 146.799 80.2345 146.933C80.1509 147.065 79.9769 147.105 79.8436 147.025Z" fill="white"/>
<path d="M77.6436 145.639L76.9983 145.2C76.8528 145.101 76.8152 144.903 76.9143 144.758C77.0135 144.612 77.2117 144.575 77.3571 144.674C77.3582 144.674 77.3595 144.675 77.3608 144.676L77.3662 144.68L77.9947 145.125L77.9988 145.128C78.139 145.227 78.1721 145.422 78.0727 145.561C77.9745 145.7 77.7833 145.734 77.6436 145.639Z" fill="white"/>
<path d="M75.5201 144.136L74.8988 143.664C74.7479 143.549 74.7187 143.334 74.8334 143.183C74.9484 143.033 75.1638 143.004 75.3147 143.118C75.3159 143.119 75.3172 143.12 75.3183 143.121L75.3238 143.126L75.9278 143.603L75.9321 143.606C76.0774 143.721 76.1021 143.932 75.9869 144.077C75.8732 144.221 75.6654 144.246 75.5201 144.136Z" fill="white"/>
<path d="M73.4791 142.522L72.8842 142.017C72.7313 141.887 72.7128 141.658 72.843 141.505C72.9731 141.352 73.2026 141.334 73.3556 141.464C73.3564 141.464 73.3572 141.465 73.3579 141.466L73.3636 141.471L73.9431 141.977L73.9473 141.981C74.0961 142.111 74.1112 142.337 73.981 142.485C73.8517 142.633 73.6282 142.649 73.4791 142.522Z" fill="white"/>
<path d="M71.5266 140.802L70.9582 140.266C70.8051 140.122 70.798 139.88 70.9427 139.727C71.0874 139.574 71.3288 139.567 71.482 139.712C71.4828 139.713 71.4836 139.713 71.4843 139.714L71.49 139.72L72.0425 140.255L72.0467 140.259C72.1958 140.403 72.1994 140.641 72.0548 140.79C71.9112 140.938 71.6759 140.942 71.5266 140.802Z" fill="white"/>
<path d="M69.6643 138.983L69.124 138.418C68.9714 138.259 68.9772 138.007 69.1366 137.854C69.2961 137.702 69.5489 137.708 69.7014 137.867C69.7022 137.868 69.7029 137.868 69.7038 137.869L69.7093 137.875L70.2334 138.438L70.2375 138.443C70.3857 138.602 70.3766 138.851 70.2173 138.999C70.0597 139.145 69.8131 139.138 69.6643 138.983Z" fill="white"/>
<path d="M67.8975 137.07L67.3868 136.478C67.2364 136.304 67.2559 136.04 67.4304 135.89C67.605 135.74 67.8686 135.759 68.0191 135.934C68.02 135.934 68.0207 135.935 68.0215 135.936L68.027 135.943L68.5211 136.532L68.5252 136.537C68.6715 136.711 68.6485 136.97 68.4742 137.116C68.3014 137.261 68.0443 137.239 67.8975 137.07Z" fill="white"/>
<path d="M66.2314 135.067L65.7521 134.449C65.6049 134.259 65.6395 133.986 65.8296 133.839C66.0197 133.692 66.2933 133.727 66.4405 133.917C66.4412 133.918 66.4419 133.919 66.4428 133.92L66.4483 133.927L66.9107 134.54L66.9148 134.546C67.0576 134.735 67.0196 135.004 66.8298 135.147C66.6419 135.288 66.3752 135.252 66.2314 135.067Z" fill="white"/>
<path d="M64.6721 132.978L64.2264 132.336C64.0838 132.13 64.135 131.848 64.3409 131.706C64.5468 131.563 64.8292 131.615 64.9718 131.82C64.9726 131.821 64.9732 131.822 64.974 131.823L64.9794 131.831L65.4082 132.468L65.4123 132.474C65.5503 132.679 65.4957 132.957 65.2905 133.095C65.0869 133.231 64.8114 133.179 64.6721 132.978Z" fill="white"/>
<path d="M63.2269 130.808L62.8166 130.141C62.6803 129.92 62.7496 129.63 62.9715 129.494C63.1932 129.358 63.4835 129.427 63.6197 129.648C63.6204 129.65 63.6211 129.651 63.6218 129.652L63.6272 129.661L64.0201 130.319L64.024 130.326C64.1557 130.547 64.0833 130.832 63.8622 130.964C63.643 131.094 63.3602 131.024 63.2269 130.808Z" fill="white"/>
<path d="M61.9033 128.559L61.5313 127.87C61.4032 127.632 61.492 127.336 61.7298 127.208C61.9677 127.08 62.2645 127.169 62.3926 127.406C62.3933 127.407 62.3939 127.409 62.3946 127.41L62.3997 127.42L62.7544 128.099L62.7583 128.107C62.8819 128.343 62.7899 128.635 62.553 128.758C62.318 128.881 62.0286 128.791 61.9033 128.559Z" fill="white"/>
<path d="M60.7135 126.235L60.3844 125.524C60.2685 125.273 60.3779 124.976 60.6291 124.86C60.8804 124.744 61.1781 124.853 61.2942 125.104L61.2959 125.107L61.2995 125.116L61.6155 125.813L61.6191 125.821C61.7325 126.072 61.6213 126.366 61.3707 126.479C61.1214 126.592 60.8281 126.482 60.7135 126.235Z" fill="white"/>
<path d="M59.667 123.841L59.3819 123.11C59.2794 122.847 59.4097 122.551 59.6728 122.449C59.936 122.346 60.2324 122.477 60.3351 122.739L60.3366 122.743L60.34 122.752L60.6124 123.467L60.6158 123.476C60.7156 123.738 60.5838 124.031 60.3215 124.131C60.0603 124.23 59.7683 124.1 59.667 123.841Z" fill="white"/>
<path d="M58.771 121.385L58.5332 120.637C58.4459 120.362 58.5979 120.069 58.8726 119.982C59.1473 119.895 59.4406 120.047 59.5279 120.321L59.5291 120.325L59.5321 120.335L59.7578 121.065L59.7609 121.075C59.8453 121.348 59.6919 121.638 59.4183 121.723C59.1461 121.807 58.8571 121.655 58.771 121.385Z" fill="white"/>
<path d="M58.0365 118.873L57.8494 118.111C57.7794 117.825 57.9542 117.538 58.2397 117.468C58.5253 117.398 58.8133 117.573 58.8833 117.858L58.8843 117.862L58.8869 117.872L59.0628 118.615L59.0653 118.626C59.1325 118.91 58.9566 119.194 58.6722 119.262C58.3892 119.328 58.1055 119.154 58.0365 118.873Z" fill="white"/>
<path d="M57.4748 116.315L57.3416 115.541C57.291 115.246 57.4894 114.966 57.7847 114.915C58.0801 114.864 58.3607 115.062 58.4113 115.357L58.412 115.362L58.4138 115.373L58.537 116.126L58.5388 116.137C58.5869 116.431 58.3875 116.708 58.0934 116.756C57.8009 116.804 57.5249 116.607 57.4748 116.315Z" fill="white"/>
<path d="M57.0971 113.722L57.0213 112.938C56.9919 112.635 57.2145 112.365 57.5185 112.336C57.8226 112.306 58.0927 112.529 58.1222 112.832L58.1227 112.837L58.1236 112.849L58.191 113.608L58.1921 113.621C58.219 113.923 57.9954 114.189 57.6929 114.216C57.392 114.242 57.1261 114.021 57.0971 113.722Z" fill="white"/>
<path d="M56.9138 111.105L56.8982 110.317C56.8921 110.007 57.1391 109.75 57.4504 109.744C57.7613 109.737 58.0186 109.984 58.0248 110.295L58.0249 110.299L58.0251 110.313L58.034 111.074L58.0341 111.087C58.0378 111.396 57.7899 111.649 57.4805 111.653C57.1728 111.657 56.9199 111.411 56.9138 111.105Z" fill="white"/>
<path d="M56.9339 108.479L56.9807 107.692C56.9995 107.376 57.2712 107.136 57.5874 107.154C57.9037 107.173 58.145 107.444 58.1262 107.76L58.126 107.765L58.125 107.779L58.0738 108.538L58.0729 108.551C58.0516 108.865 57.7796 109.103 57.4652 109.082C57.1523 109.06 56.9154 108.791 56.9339 108.479Z" fill="white"/>
<path d="M57.1639 105.862L57.2743 105.081C57.3194 104.762 57.615 104.539 57.9344 104.585C58.2539 104.63 58.4762 104.925 58.4311 105.244L58.4305 105.248L58.4284 105.263L58.3158 106.014L58.3137 106.029C58.2663 106.345 57.9706 106.564 57.6531 106.517C57.3375 106.469 57.1193 106.177 57.1639 105.862Z" fill="white"/>
<path d="M57.6068 103.27L57.7811 102.5C57.8537 102.18 58.172 101.98 58.4923 102.052C58.8126 102.124 59.0134 102.442 58.941 102.762L58.9399 102.767L58.9366 102.781L58.7628 103.521L58.7594 103.535C58.6848 103.852 58.3666 104.05 58.0485 103.975C57.7321 103.901 57.5354 103.586 57.6068 103.27Z" fill="white"/>
<path d="M58.2597 100.723L58.4947 99.9699C58.5941 99.6514 58.9334 99.4737 59.2523 99.5729C59.5712 99.6722 59.7492 100.011 59.6498 100.329L59.6484 100.334L59.6441 100.347L59.4117 101.071L59.4073 101.085C59.3059 101.401 58.967 101.575 58.6506 101.474C58.3356 101.373 58.1615 101.037 58.2597 100.723Z" fill="white"/>
<path d="M59.111 98.2359L59.4032 97.5036C59.529 97.1883 59.8869 97.0346 60.2026 97.1602C60.5184 97.2859 60.6722 97.6431 60.5465 97.9584L60.5447 97.963L60.5394 97.9757L60.2518 98.6799L60.2464 98.6927C60.1189 99.0054 59.7615 99.1554 59.4484 99.028C59.137 98.9015 58.9867 98.5474 59.111 98.2359Z" fill="white"/>
<path d="M60.148 95.822L60.4932 95.1136C60.6444 94.8033 61.0188 94.6741 61.3295 94.8252C61.6402 94.9762 61.7696 95.3501 61.6184 95.6605L61.6163 95.665L61.6104 95.677L61.2715 96.3585L61.2654 96.3706C61.1126 96.6781 60.739 96.8036 60.431 96.6509C60.1245 96.4989 59.9987 96.1286 60.148 95.822Z" fill="white"/>
<path d="M61.3612 93.4934L61.7569 92.8126C61.9309 92.513 62.3155 92.411 62.6155 92.5849C62.9156 92.7588 63.0177 93.1427 62.8435 93.4423L62.8429 93.4433L62.8366 93.4543L62.4525 94.1122L62.446 94.1234C62.2715 94.4223 61.8874 94.5234 61.588 94.3492C61.2885 94.1751 61.1867 93.7924 61.3612 93.4934Z" fill="white"/>
<path d="M62.7322 91.2565L63.1714 90.6037C63.3657 90.3151 63.7576 90.2382 64.0466 90.4323C64.3357 90.6263 64.4125 91.0176 64.2183 91.3062L64.2178 91.3072L64.211 91.3171L63.7839 91.949L63.7771 91.959C63.5825 92.247 63.1911 92.323 62.9026 92.1286C62.6143 91.9343 62.5376 91.5444 62.7322 91.2565Z" fill="white"/>
<path d="M64.2433 89.114L64.7218 88.4901C64.9343 88.2129 65.3318 88.1603 65.6094 88.3725C65.887 88.5847 65.9398 88.9816 65.7272 89.2588L65.7264 89.2597L65.7194 89.2686L65.2536 89.8736L65.2467 89.8826C65.0339 90.1591 64.6368 90.2109 64.36 89.9984C64.0831 89.786 64.0305 89.3905 64.2433 89.114Z" fill="white"/>
<path d="M65.8799 87.0684L66.3933 86.4737C66.6224 86.2082 67.0237 86.1785 67.2895 86.4074C67.5554 86.6363 67.5851 87.037 67.3559 87.3024L67.3552 87.3033L67.3482 87.3113L66.8476 87.8889L66.8407 87.8969C66.6113 88.1617 66.2104 88.1905 65.9453 87.9615C65.6803 87.7326 65.6506 87.3331 65.8799 87.0684Z" fill="white"/>
<path d="M67.6284 85.12L68.1728 84.5544C68.417 84.3008 68.8209 84.2927 69.0749 84.5366C69.3289 84.7805 69.3369 85.1838 69.0927 85.4374L69.0919 85.4382L69.0849 85.4455L68.5534 85.9956L68.5464 86.003C68.3021 86.2559 67.8986 86.2631 67.6455 86.0189C67.3921 85.7748 67.384 85.3729 67.6284 85.12Z" fill="white"/>
<path d="M69.4766 83.2682L70.0484 82.7319C70.3062 82.4902 70.7115 82.5027 70.9537 82.7602C71.1958 83.0176 71.1831 83.4223 70.9254 83.6642L70.9244 83.6649L70.9175 83.6714L70.3586 84.1937L70.3517 84.2002C70.0938 84.4413 69.6889 84.4279 69.4475 84.1703C69.2061 83.9127 69.2187 83.5093 69.4766 83.2682Z" fill="white"/>
<path d="M71.414 81.512L72.0119 81.0028C72.2822 80.7728 72.6879 80.805 72.9182 81.0747C73.1486 81.3444 73.1164 81.7495 72.8463 81.9797L72.8453 81.9804L72.8385 81.9862L72.2532 82.4827L72.2462 82.4885C71.976 82.7178 71.5707 82.6849 71.3412 82.4149C71.1117 82.1452 71.1436 81.7413 71.414 81.512Z" fill="white"/>
<path d="M73.4316 79.8491L74.0508 79.3686C74.3322 79.1502 74.7377 79.2009 74.9563 79.4819C75.1749 79.763 75.1242 80.1678 74.8427 80.3861L74.8418 80.3868L74.835 80.3921L74.2284 80.8609L74.2217 80.8661C73.9401 81.0837 73.5352 81.0322 73.3173 80.7512C73.0995 80.4703 73.1502 80.0667 73.4316 79.8491Z" fill="white"/>
<path d="M75.5197 78.2795L76.1589 77.8264C76.4506 77.6196 76.8549 77.6881 77.062 77.9795C77.269 78.2708 77.2004 78.6745 76.9087 78.8814L76.9077 78.8821L76.901 78.8867L76.2744 79.3292L76.2676 79.334C75.9759 79.5398 75.5722 79.4708 75.3658 79.1793C75.1595 78.888 75.2278 78.4856 75.5197 78.2795Z" fill="white"/>
<path d="M77.6719 76.8009L78.3292 76.3749C78.6304 76.1797 79.033 76.2651 79.2286 76.5659C79.4241 76.8667 79.3385 77.2687 79.0372 77.464L79.0363 77.4647L79.0296 77.4691L78.3849 77.8853L78.3783 77.8896C78.077 78.0841 77.675 77.9978 77.4803 77.697C77.2854 77.3961 77.3707 76.9954 77.6719 76.8009Z" fill="white"/>
<path d="M79.8826 75.412L80.5569 75.0126C80.8669 74.829 81.2672 74.9309 81.4512 75.2405C81.635 75.55 81.5329 75.9499 81.2229 76.1335L81.2218 76.1341L81.2152 76.138L80.5536 76.5283L80.5468 76.5323C80.2369 76.7152 79.8372 76.6125 79.654 76.303C79.4708 75.9934 79.5726 75.5949 79.8826 75.412Z" fill="white"/>
<path d="M82.1461 74.1118L82.8339 73.7383C83.1517 73.5656 83.5495 73.6831 83.7224 74.0004C83.8954 74.3177 83.7779 74.7149 83.46 74.8876L83.4588 74.8882L83.4526 74.8914L82.7765 75.257L82.7703 75.2604C82.4525 75.4323 82.0554 75.3142 81.8833 74.9969C81.7112 74.6795 81.8283 74.2835 82.1461 74.1118Z" fill="white"/>
<path d="M84.454 72.8957L85.1545 72.5471C85.4795 72.3853 85.8743 72.5174 86.0362 72.8419C86.1981 73.1665 86.0661 73.5606 85.741 73.7225L85.7398 73.723L85.7336 73.7261L85.0449 74.0672L85.0386 74.0703C84.7136 74.2312 84.3196 74.0987 84.1584 73.7741C83.9973 73.4496 84.129 73.0566 84.454 72.8957Z" fill="white"/>
<path d="M86.8028 71.763L87.5151 71.4395C87.8469 71.2888 88.2382 71.4352 88.3891 71.7665C88.54 72.0978 88.3935 72.4885 88.0616 72.6392L88.0604 72.6398L88.0541 72.6426L87.3539 72.9591L87.3476 72.9619C87.0158 73.1117 86.6252 72.9647 86.4752 72.6336C86.3251 72.3024 86.4712 71.9128 86.8028 71.763Z" fill="white"/>
<path d="M89.1899 70.7139L89.913 70.4156C90.2511 70.276 90.6384 70.4366 90.7782 70.7742C90.9179 71.1119 90.7569 71.4986 90.4188 71.6382L90.4177 71.6386L90.4113 71.6413L89.7004 71.933L89.6941 71.9357C89.3561 72.0744 88.9695 71.9132 88.8306 71.5758C88.6916 71.2383 88.852 70.8527 89.1899 70.7139Z" fill="white"/>
<path d="M91.6121 69.749L92.345 69.4759C92.6889 69.3478 93.072 69.5224 93.2003 69.8659C93.3287 70.2095 93.1538 70.5919 92.8097 70.72L92.8084 70.7204L92.8021 70.7228L92.0814 70.9897L92.0749 70.9921C91.731 71.1195 91.3489 70.9444 91.2213 70.601C91.0939 70.2575 91.2681 69.8764 91.6121 69.749Z" fill="white"/>
<path d="M94.066 68.8685L94.808 68.6208C95.1576 68.5041 95.5356 68.6925 95.6524 69.0415C95.7692 69.3905 95.5806 69.768 95.231 69.8846L95.2298 69.8851L95.2233 69.8872L94.4939 70.1291L94.4874 70.1312C94.138 70.2471 93.7607 70.0582 93.6447 69.7094C93.5288 69.3607 93.7166 68.9844 94.066 68.8685Z" fill="white"/>
<path d="M96.5493 68.0732L97.2999 67.8527C97.6536 67.7488 98.0246 67.9509 98.1287 68.304C98.2328 68.6572 98.0304 69.0277 97.6768 69.1317L97.6718 69.1331L96.9349 69.3517L96.9284 69.3537C96.5744 69.4586 96.2022 69.2572 96.0972 68.9038C95.9921 68.5503 96.1937 68.1786 96.5477 68.0737L96.5493 68.0732Z" fill="white"/>
<path d="M99.0596 67.3679L99.8173 67.173C100.173 67.0817 100.535 67.2952 100.626 67.6499C100.718 68.0046 100.504 68.3664 100.149 68.4578L100.144 68.4591L99.3997 68.6525L99.3932 68.6542C99.0376 68.7467 98.6744 68.5338 98.5818 68.1788C98.4893 67.8237 98.7024 67.461 99.0581 67.3685L99.0596 67.3679Z" fill="white"/>
<path d="M101.593 66.7481L102.357 66.579C102.713 66.5 103.066 66.7246 103.145 67.0804C103.224 67.4363 102.999 67.7889 102.643 67.8678L102.638 67.8689L101.888 68.0371L101.881 68.0385C101.524 68.1185 101.171 67.8945 101.09 67.5382C101.01 67.1821 101.234 66.8284 101.591 66.7484L101.593 66.7481Z" fill="white"/>
<path d="M104.145 66.2143L104.915 66.071C105.272 66.0045 105.615 66.2396 105.682 66.5962C105.749 66.9527 105.513 67.2957 105.156 67.3624L105.151 67.3634L104.395 67.5063L104.389 67.5076C104.031 67.5752 103.687 67.3405 103.619 66.9835C103.551 66.6267 103.786 66.2824 104.144 66.2149L104.145 66.2143Z" fill="white"/>
<path d="M106.715 65.7666L107.489 65.6491C107.846 65.5949 108.18 65.8402 108.234 66.197C108.288 66.5539 108.043 66.8871 107.685 66.9413L107.68 66.942L106.92 67.0595L106.914 67.0605C106.556 67.1157 106.221 66.871 106.166 66.5138C106.11 66.1565 106.355 65.8221 106.713 65.7669L106.715 65.7666Z" fill="white"/>
<path d="M109.298 65.4054L110.075 65.314C110.432 65.2719 110.756 65.5269 110.798 65.8836C110.84 66.2403 110.585 66.5634 110.228 66.6055L110.223 66.6061L109.459 66.6979L109.452 66.6987C109.095 66.7416 108.77 66.487 108.727 66.1299C108.684 65.7728 108.939 65.4486 109.296 65.4055L109.298 65.4054Z" fill="white"/>
<path d="M111.892 65.1308L112.672 65.0655C113.029 65.0357 113.342 65.3 113.372 65.656C113.402 66.0121 113.137 66.3249 112.78 66.3549L112.775 66.3553L112.009 66.4215L112.002 66.4221C111.645 66.4529 111.331 66.1888 111.3 65.8322C111.269 65.4757 111.533 65.1618 111.89 65.1308H111.892Z" fill="white"/>
<path d="M114.494 64.9437L115.275 64.9046C115.631 64.8868 115.933 65.1602 115.951 65.5154C115.969 65.8704 115.695 66.1727 115.34 66.1905L115.335 66.1908L114.566 66.2312L114.56 66.2316C114.204 66.2504 113.9 65.9773 113.881 65.6216C113.862 65.266 114.136 64.9627 114.492 64.9439L114.494 64.9437Z" fill="white"/>
<path d="M117.1 64.844L117.882 64.8313C118.236 64.8255 118.528 65.1075 118.534 65.4613C118.54 65.8149 118.257 66.1063 117.903 66.1121L117.898 66.1123L117.129 66.1267L117.122 66.1268C116.768 66.1334 116.475 65.8519 116.468 65.4976C116.461 65.1434 116.743 64.8508 117.098 64.8442L117.1 64.844Z" fill="white"/>
<path d="M119.707 64.8323L120.49 64.846C120.842 64.8521 121.123 65.1424 121.116 65.4942C121.11 65.8461 120.819 66.1262 120.467 66.12H120.462L119.693 66.1084L119.687 66.1083C119.334 66.1031 119.052 65.813 119.057 65.4607C119.062 65.1082 119.353 64.8269 119.706 64.8322H119.707V64.8323Z" fill="white"/>
<path d="M122.314 64.909L123.095 64.9492C123.445 64.9673 123.714 65.2654 123.696 65.6149C123.678 65.9646 123.379 66.2333 123.029 66.2153L123.025 66.2151L122.256 66.1775L122.25 66.1772C121.899 66.1601 121.629 65.8622 121.646 65.512C121.663 65.1618 121.961 64.8918 122.312 64.9088L122.314 64.909Z" fill="white"/>
<path d="M124.916 65.0742L125.695 65.1411C126.043 65.1709 126.3 65.4765 126.27 65.8235C126.24 66.1706 125.935 66.4276 125.587 66.3978L125.582 66.3974L124.816 66.3335L124.809 66.333C124.461 66.304 124.202 65.9987 124.231 65.651C124.26 65.3034 124.566 65.0451 124.914 65.0741L124.916 65.0742Z" fill="white"/>
<path d="M127.51 65.3282L128.287 65.4219C128.631 65.4634 128.877 65.776 128.835 66.12C128.794 66.464 128.481 66.7091 128.136 66.6676L128.131 66.6671L127.368 66.5768L127.361 66.5761C127.016 66.5355 126.769 66.2229 126.81 65.8783C126.851 65.5337 127.164 65.2873 127.509 65.3281L127.51 65.3282Z" fill="white"/>
<path d="M130.094 65.672L130.867 65.7924C131.208 65.8457 131.441 66.1648 131.388 66.5054C131.335 66.846 131.015 67.0789 130.674 67.0258L130.669 67.0249L129.909 66.9084L129.903 66.9075C129.561 66.8551 129.327 66.5359 129.379 66.1948C129.431 65.8534 129.751 65.6193 130.093 65.6719L130.094 65.672Z" fill="white"/>
<path d="M132.665 66.105L133.433 66.2525C133.77 66.3173 133.99 66.6426 133.926 66.9794C133.861 67.3161 133.535 67.5367 133.198 67.4718L133.193 67.4709L132.437 67.3278L132.431 67.3265C132.093 67.2626 131.871 66.9371 131.935 66.5997C131.999 66.2624 132.325 66.0407 132.663 66.1046L132.665 66.105Z" fill="white"/>
<path d="M135.218 66.6282L135.981 66.8028C136.313 66.879 136.522 67.2103 136.445 67.5427C136.369 67.8751 136.037 68.0829 135.704 68.0066L135.699 68.0055L134.949 67.8357L134.943 67.8343C134.609 67.7589 134.4 67.4275 134.476 67.0944C134.551 66.7611 134.883 66.5523 135.217 66.6278L135.218 66.6282Z" fill="white"/>
<path d="M137.752 67.2418L138.508 67.4435C138.836 67.531 139.031 67.8678 138.943 68.1956C138.855 68.5233 138.518 68.718 138.19 68.6305L138.185 68.6291L137.442 68.4328L137.435 68.4311C137.106 68.3443 136.91 68.0075 136.997 67.679C137.084 67.3504 137.421 67.1545 137.75 67.2415L137.752 67.2418Z" fill="white"/>
<path d="M140.262 67.9458L141.009 68.1738C141.332 68.2724 141.514 68.614 141.416 68.9368C141.317 69.2594 140.975 69.441 140.652 69.3425L140.647 69.3412L139.911 69.1187L139.905 69.1168C139.581 69.0188 139.398 68.6772 139.496 68.3537C139.594 68.0302 139.937 67.8473 140.261 67.9453L140.262 67.9458Z" fill="white"/>
<path d="M142.744 68.7349L143.484 68.9872C143.802 69.0958 143.972 69.4412 143.863 69.759C143.754 70.0765 143.408 70.246 143.09 70.1375L143.086 70.1361L142.357 69.8893L142.352 69.8875C142.033 69.7796 141.862 69.434 141.97 69.1156C142.078 68.7972 142.424 68.6266 142.743 68.7345L142.744 68.7349Z" fill="white"/>
<path d="M145.199 69.6027L145.93 69.8775C146.243 69.9952 146.401 70.3438 146.283 70.6563C146.166 70.9687 145.817 71.1266 145.504 71.0089L145.5 71.0077L144.779 70.7385L144.773 70.7367C144.46 70.6196 144.301 70.2708 144.418 69.9576C144.535 69.6444 144.884 69.4854 145.198 69.6023L145.199 69.6027Z" fill="white"/>
<path d="M147.626 70.5433L148.348 70.8389C148.656 70.9647 148.803 71.3159 148.677 71.6232C148.551 71.9305 148.199 72.0775 147.892 71.9517L147.888 71.9504L147.175 71.6605L147.17 71.6586C146.861 71.5334 146.713 71.182 146.839 70.8739C146.964 70.5658 147.316 70.4177 147.624 70.5429L147.626 70.5433Z" fill="white"/>
<path d="M150.024 71.5511L150.737 71.8655C151.04 71.9988 151.177 72.3517 151.044 72.6539C150.91 72.9561 150.557 73.093 150.254 72.9597L150.251 72.9584L149.545 72.6494L149.541 72.6476C149.237 72.5148 149.099 72.1617 149.232 71.8586C149.365 71.5557 149.719 71.4176 150.022 71.5505L150.024 71.5511Z" fill="white"/>
<path d="M152.393 72.6198L153.098 72.9509C153.395 73.0907 153.523 73.4451 153.383 73.7423C153.243 74.0394 152.888 74.167 152.591 74.0271L152.588 74.026L151.89 73.7002L151.887 73.6985C151.588 73.5591 151.46 73.2045 151.599 72.9066C151.739 72.6086 152.094 72.48 152.392 72.6193L152.393 72.6198Z" fill="white"/>
<path d="M154.735 73.7431L155.433 74.0902C155.725 74.2357 155.844 74.5909 155.699 74.8832C155.553 75.1755 155.197 75.2944 154.904 75.1488L154.903 75.1478L154.211 74.8058L154.207 74.8041C153.914 74.659 153.794 74.3037 153.939 74.0104C154.084 73.7172 154.44 73.5972 154.734 73.7424L154.735 73.7431Z" fill="white"/>
<path d="M157.051 74.9164L157.742 75.2772C158.03 75.4279 158.141 75.7833 157.99 76.071C157.839 76.3588 157.483 76.4699 157.195 76.3192L157.193 76.3184L156.508 75.9624L156.505 75.9608C156.216 75.8107 156.104 75.4549 156.254 75.1664C156.405 74.8777 156.761 74.7656 157.05 74.9157L157.051 74.9164Z" fill="white"/>
<path d="M159.344 76.1338L160.027 76.5067C160.311 76.6617 160.415 77.0171 160.26 77.3005C160.105 77.5839 159.749 77.688 159.465 77.5331L159.464 77.5324L158.785 77.1639L158.782 77.1625C158.497 77.008 158.392 76.6523 158.547 76.3681C158.701 76.0838 159.058 75.9786 159.342 76.1331L159.344 76.1338Z" fill="white"/>
<path d="M161.613 77.3899L162.29 77.7734C162.57 77.932 162.668 78.2869 162.509 78.5663C162.351 78.8457 161.995 78.9437 161.715 78.7851L161.714 78.7845L161.041 78.4052L161.039 78.404C160.758 78.2458 160.659 77.8905 160.817 77.6103C160.976 77.3302 161.331 77.2312 161.612 77.3892L161.613 77.3899Z" fill="white"/>
<path d="M163.863 78.6794L164.534 79.0721C164.81 79.2337 164.902 79.588 164.741 79.8635C164.579 80.139 164.224 80.2315 163.948 80.0701L163.948 80.0698L163.279 79.6811L163.277 79.6799C163 79.5188 162.907 79.1642 163.068 78.8877C163.229 78.6112 163.585 78.5177 163.861 78.6787L163.863 78.6794Z" fill="white"/>
<path d="M166.094 79.9978L166.76 80.3982C167.032 80.562 167.12 80.9153 166.957 81.1874C166.792 81.4595 166.439 81.5473 166.166 81.3835L166.166 81.3834L165.502 80.9866L165.5 80.9856C165.227 80.8222 165.138 80.4685 165.302 80.1955C165.465 79.9226 165.819 79.8336 166.093 79.997L166.094 79.9978Z" fill="white"/>
<path d="M168.309 81.3399L168.971 81.7465C169.24 81.912 169.324 82.2641 169.159 82.533C168.993 82.8019 168.64 82.8859 168.371 82.7204L167.71 82.3171L167.709 82.3164C167.439 82.1513 167.354 81.7987 167.519 81.5288C167.684 81.259 168.037 81.174 168.308 81.3391L168.309 81.3399Z" fill="white"/>
<path d="M170.511 82.7013L171.17 83.113C171.436 83.2795 171.517 83.6304 171.35 83.8964C171.183 84.1626 170.832 84.2434 170.566 84.0769L169.908 83.6682C169.64 83.5026 169.558 83.1515 169.724 82.8842C169.89 82.6169 170.241 82.5344 170.509 82.6999L170.511 82.7013Z" fill="white"/>
<path d="M172.703 84.0777L173.358 84.4929C173.623 84.6601 173.701 85.0093 173.534 85.2729C173.366 85.5366 173.017 85.6152 172.753 85.448L172.097 85.0354C171.832 84.8691 171.752 84.5194 171.919 84.2548C172.086 83.99 172.436 83.9102 172.701 84.0766L172.703 84.0777Z" fill="white"/>
<path d="M174.886 85.4646L175.54 85.882C175.802 86.0492 175.879 86.3967 175.711 86.6582C175.544 86.9198 175.197 86.9967 174.935 86.8295L174.281 86.4142C174.018 86.2476 173.94 85.8998 174.107 85.6373C174.274 85.3747 174.622 85.2969 174.885 85.4636L174.886 85.4646Z" fill="white"/>
<path d="M177.065 86.8577L177.717 87.2763C177.977 87.4429 178.053 87.7886 177.886 88.0483C177.719 88.308 177.374 88.3839 177.114 88.2173L176.46 87.8006C176.199 87.6344 176.123 87.2883 176.289 87.0277C176.456 86.7672 176.802 86.6907 177.063 86.857L177.065 86.8577Z" fill="white"/>
<path d="M179.24 88.2531L179.893 88.6715C180.151 88.8371 180.226 89.1807 180.06 89.4388C179.895 89.6971 179.551 89.7728 179.293 89.6071L178.639 89.1903C178.38 89.0249 178.304 88.6808 178.469 88.4218C178.635 88.1628 178.979 88.0869 179.239 88.2522L179.24 88.2531Z" fill="white"/>
<path d="M181.416 89.6461L182.069 90.063C182.326 90.2271 182.402 90.5684 182.238 90.8255C182.073 91.0827 181.732 91.1585 181.475 90.9946L180.82 90.5788C180.562 90.4149 180.485 90.073 180.65 89.8153C180.814 89.5574 181.156 89.4813 181.414 89.6451L181.416 89.6461Z" fill="white"/>
<path d="M183.594 91.033L184.249 91.4471C184.505 91.609 184.582 91.948 184.42 92.2043C184.258 92.4606 183.919 92.5374 183.662 92.3756L183.005 91.9623C182.748 91.8004 182.671 91.4608 182.833 91.204C182.995 90.9471 183.335 90.87 183.592 91.032L183.594 91.033Z" fill="white"/>
<path d="M185.778 92.4091L186.435 92.8192C186.691 92.9785 186.769 93.3148 186.61 93.5707C186.45 93.8266 186.114 93.905 185.857 93.7457L185.198 93.336C184.941 93.1766 184.862 92.8395 185.022 92.5832C185.182 92.3269 185.519 92.2483 185.776 92.4077L185.778 92.4091Z" fill="white"/>
<path d="M187.97 93.7702L188.63 94.1749L188.631 94.1758C188.887 94.3325 188.966 94.6666 188.809 94.9218C188.652 95.177 188.319 95.2575 188.063 95.1006L187.4 94.696C187.144 94.5395 187.063 94.2051 187.22 93.9491C187.376 93.6931 187.711 93.6123 187.968 93.7688L187.969 93.7695L187.97 93.7702Z" fill="white"/>
<path d="M190.172 95.1131L190.835 95.5121L190.837 95.5129C191.091 95.666 191.173 95.9958 191.019 96.2496C190.867 96.5027 190.538 96.5846 190.284 96.4336L189.616 96.0364C189.36 95.8841 189.276 95.5534 189.429 95.2978C189.581 95.0422 189.912 94.9584 190.168 95.1106L190.171 95.1121L190.172 95.1131Z" fill="white"/>
<path d="M192.386 96.4339L193.054 96.8248L193.056 96.8258C193.308 96.9738 193.393 97.2984 193.245 97.5509C193.097 97.8024 192.774 97.8871 192.521 97.7413L191.848 97.3519C191.594 97.2046 191.507 96.8793 191.654 96.6251C191.802 96.3709 192.128 96.2842 192.382 96.4317L192.385 96.4331L192.386 96.4339Z" fill="white"/>
<path d="M194.617 97.7257L195.289 98.107L195.291 98.1081C195.543 98.2507 195.631 98.5699 195.488 98.8211C195.346 99.0713 195.028 99.1596 194.777 99.019L194.098 98.6391C193.845 98.4973 193.754 98.1773 193.896 97.9244C194.038 97.6715 194.359 97.5814 194.612 97.7231L194.614 97.7246L194.617 97.7257Z" fill="white"/>
<path d="M196.865 98.9838L197.543 99.3538L197.546 99.355C197.796 99.4916 197.888 99.8052 197.751 100.055C197.615 100.305 197.303 100.397 197.052 100.262L196.367 99.8931C196.115 99.7572 196.021 99.4429 196.157 99.1911C196.293 98.9392 196.608 98.8453 196.86 98.981L196.862 98.9822L196.865 98.9838Z" fill="white"/>
<path d="M199.133 100.203L199.818 100.56L199.821 100.562C200.07 100.692 200.167 100.999 200.036 101.249C199.906 101.497 199.6 101.594 199.351 101.465L198.659 101.109C198.407 100.98 198.309 100.671 198.438 100.42C198.568 100.169 198.877 100.071 199.128 100.2L199.131 100.202L199.133 100.203Z" fill="white"/>
<path d="M201.424 101.377L202.116 101.72L202.119 101.722C202.368 101.845 202.469 102.146 202.346 102.395C202.223 102.642 201.922 102.744 201.674 102.623L200.974 102.28C200.724 102.158 200.62 101.856 200.743 101.606C200.866 101.356 201.168 101.252 201.419 101.375L201.421 101.376L201.424 101.377Z" fill="white"/>
<path d="M203.739 102.502L204.439 102.829L204.442 102.83C204.69 102.946 204.797 103.241 204.681 103.489C204.565 103.736 204.271 103.843 204.024 103.729L203.316 103.402C203.066 103.287 202.957 102.992 203.072 102.742C203.187 102.493 203.483 102.384 203.733 102.499L203.735 102.5L203.739 102.502Z" fill="white"/>
<path d="M206.079 103.57L206.785 103.878L206.789 103.88C207.037 103.988 207.149 104.276 207.041 104.523C206.933 104.77 206.646 104.882 206.399 104.776L205.684 104.469C205.435 104.361 205.32 104.073 205.428 103.824C205.535 103.575 205.824 103.46 206.073 103.567L206.075 103.568L206.079 103.57Z" fill="white"/>
<path d="M208.445 104.576L209.16 104.865L209.164 104.867C209.411 104.966 209.53 105.247 209.43 105.494C209.33 105.739 209.05 105.858 208.804 105.76L208.08 105.472C207.831 105.373 207.71 105.092 207.809 104.844C207.908 104.596 208.19 104.475 208.438 104.573L208.441 104.574L208.445 104.576Z" fill="white"/>
<path d="M210.838 105.514L211.561 105.782L211.565 105.783C211.812 105.874 211.937 106.147 211.846 106.393C211.755 106.638 211.483 106.764 211.238 106.675L210.505 106.408C210.257 106.318 210.129 106.044 210.219 105.797C210.31 105.55 210.584 105.422 210.831 105.512L210.834 105.513L210.838 105.514Z" fill="white"/>
<path d="M213.258 106.378L213.989 106.622L213.994 106.624C214.239 106.706 214.372 106.97 214.29 107.216C214.208 107.46 213.944 107.592 213.699 107.512L212.958 107.269C212.711 107.188 212.576 106.923 212.657 106.676C212.738 106.43 213.004 106.295 213.251 106.376L213.254 106.377L213.258 106.378Z" fill="white"/>
<path d="M215.705 107.162L216.444 107.381L216.448 107.382C216.693 107.455 216.832 107.711 216.76 107.955C216.688 108.199 216.432 108.338 216.188 108.267L215.439 108.05C215.193 107.978 215.051 107.721 215.123 107.476C215.194 107.23 215.452 107.089 215.697 107.16L215.7 107.161L215.705 107.162Z" fill="white"/>
<path d="M218.177 107.86L218.923 108.052L218.928 108.053C219.171 108.115 219.317 108.363 219.255 108.606C219.192 108.848 218.946 108.994 218.703 108.933L217.946 108.743C217.702 108.682 217.553 108.434 217.615 108.189C217.676 107.945 217.925 107.797 218.169 107.858L218.171 107.859L218.177 107.86Z" fill="white"/>
<path d="M220.672 108.466L221.425 108.629L221.43 108.63C221.672 108.683 221.825 108.921 221.773 109.162C221.72 109.403 221.483 109.556 221.242 109.505L220.479 109.344C220.235 109.292 220.08 109.054 220.131 108.811C220.183 108.568 220.422 108.413 220.665 108.464L220.667 108.465L220.672 108.466Z" fill="white"/>
<path d="M223.189 108.975L223.947 109.109L223.952 109.11C224.192 109.152 224.352 109.38 224.31 109.62C224.268 109.858 224.041 110.018 223.802 109.977L223.032 109.846C222.791 109.805 222.629 109.577 222.67 109.336C222.711 109.095 222.94 108.933 223.182 108.974L223.184 108.974L223.189 108.975Z" fill="white"/>
<path d="M225.722 109.383L226.486 109.483L226.492 109.484C226.73 109.515 226.897 109.733 226.866 109.97C226.835 110.207 226.618 110.374 226.381 110.344L225.605 110.246C225.366 110.216 225.196 109.998 225.227 109.759C225.257 109.52 225.475 109.351 225.714 109.382L225.716 109.382L225.722 109.383Z" fill="white"/>
<path d="M228.273 109.678L229.04 109.744L229.046 109.744C229.281 109.765 229.455 109.971 229.434 110.206C229.414 110.44 229.208 110.613 228.974 110.594L228.195 110.531C227.959 110.512 227.783 110.305 227.802 110.069C227.821 109.834 228.029 109.658 228.265 109.677L228.267 109.677L228.273 109.678Z" fill="white"/>
<path d="M230.832 109.859L231.601 109.891L231.607 109.891C231.838 109.901 232.018 110.097 232.009 110.328C231.999 110.559 231.804 110.738 231.573 110.73L230.793 110.701C230.56 110.693 230.378 110.497 230.387 110.264C230.395 110.032 230.591 109.85 230.824 109.858L230.827 109.859L230.832 109.859Z" fill="white"/>
<path d="M233.398 109.927L234.167 109.926H234.173C234.401 109.926 234.586 110.111 234.587 110.338C234.587 110.566 234.403 110.75 234.176 110.752L233.396 110.757C233.166 110.759 232.979 110.574 232.978 110.345C232.976 110.116 233.161 109.929 233.39 109.927H233.392L233.398 109.927Z" fill="white"/>
<path d="M235.964 109.885L236.733 109.852L236.738 109.851C236.963 109.841 237.152 110.015 237.162 110.239C237.172 110.462 237 110.651 236.776 110.662L235.997 110.701C235.772 110.712 235.58 110.539 235.569 110.313C235.558 110.088 235.732 109.897 235.957 109.886L235.959 109.886L235.964 109.885Z" fill="white"/>
<path d="M238.527 109.734L239.294 109.668L239.299 109.668C239.519 109.649 239.713 109.811 239.732 110.031C239.751 110.25 239.589 110.443 239.37 110.463L238.594 110.534C238.373 110.554 238.177 110.392 238.157 110.171C238.136 109.951 238.299 109.755 238.52 109.735L238.522 109.735L238.527 109.734Z" fill="white"/>
<path d="M241.082 109.476L241.846 109.378L241.851 109.377C242.066 109.35 242.263 109.501 242.29 109.716C242.318 109.93 242.167 110.126 241.953 110.155L241.18 110.258C240.964 110.287 240.765 110.136 240.736 109.92C240.707 109.704 240.859 109.506 241.075 109.477L241.077 109.477L241.082 109.476Z" fill="white"/>
<path d="M243.625 109.112L244.384 108.983L244.389 108.982C244.599 108.947 244.798 109.087 244.834 109.297C244.87 109.506 244.729 109.705 244.521 109.741L243.752 109.877C243.541 109.914 243.34 109.773 243.303 109.562C243.266 109.352 243.407 109.151 243.618 109.114L243.62 109.113L243.625 109.112Z" fill="white"/>
<path d="M246.15 108.645L246.904 108.485L246.909 108.484C247.114 108.44 247.315 108.571 247.358 108.775C247.402 108.979 247.272 109.179 247.068 109.224L246.306 109.39C246.101 109.435 245.898 109.305 245.853 109.099C245.808 108.894 245.938 108.691 246.144 108.646L246.146 108.646L246.15 108.645Z" fill="white"/>
<path d="M248.656 108.076L249.404 107.885L249.408 107.884C249.607 107.833 249.81 107.953 249.861 108.152C249.911 108.35 249.792 108.552 249.594 108.603L248.839 108.8C248.639 108.852 248.435 108.733 248.383 108.533C248.33 108.333 248.45 108.129 248.65 108.077L248.652 108.077L248.656 108.076Z" fill="white"/>
<path d="M251.139 107.406L251.879 107.186L251.883 107.184C252.076 107.127 252.279 107.237 252.337 107.43C252.395 107.622 252.285 107.824 252.093 107.883L251.347 108.109C251.153 108.168 250.947 108.059 250.888 107.865C250.829 107.671 250.939 107.467 251.133 107.408L251.135 107.407L251.139 107.406Z" fill="white"/>
<path d="M253.593 106.638L254.323 106.388L254.327 106.387C254.515 106.323 254.718 106.423 254.782 106.61C254.846 106.796 254.747 106.999 254.561 107.063L253.824 107.32C253.636 107.385 253.43 107.286 253.365 107.098C253.299 106.91 253.399 106.705 253.587 106.64L253.589 106.639L253.593 106.638Z" fill="white"/>
<path d="M256.014 105.773L256.735 105.495L256.739 105.494C256.92 105.424 257.123 105.514 257.193 105.694C257.263 105.874 257.174 106.077 256.994 106.147L256.267 106.433C256.086 106.504 255.88 106.415 255.809 106.233C255.738 106.052 255.827 105.847 256.009 105.775L256.011 105.775L256.014 105.773Z" fill="white"/>
<path d="M258.401 104.815L259.111 104.509L259.115 104.508C259.288 104.433 259.49 104.513 259.565 104.687C259.639 104.859 259.56 105.059 259.388 105.135L258.674 105.449C258.499 105.526 258.295 105.447 258.218 105.273C258.141 105.098 258.22 104.894 258.395 104.817L258.397 104.816L258.401 104.815Z" fill="white"/>
<path d="M260.75 103.765L261.447 103.432L261.451 103.431C261.616 103.352 261.814 103.421 261.893 103.586C261.971 103.75 261.902 103.947 261.739 104.026L261.038 104.369C260.872 104.45 260.671 104.381 260.59 104.215C260.509 104.049 260.578 103.849 260.744 103.768L260.746 103.767L260.75 103.765Z" fill="white"/>
<path d="M263.056 102.624L263.739 102.264L263.743 102.262C263.899 102.18 264.093 102.239 264.176 102.395C264.258 102.551 264.199 102.743 264.044 102.826L263.357 103.196C263.2 103.281 263.003 103.222 262.919 103.065C262.834 102.908 262.893 102.712 263.05 102.627L263.053 102.626L263.056 102.624Z" fill="white"/>
<path d="M265.315 101.393L265.984 101.005L265.987 101.004C266.135 100.918 266.324 100.968 266.409 101.116C266.495 101.263 266.445 101.45 266.299 101.536L265.628 101.933C265.479 102.021 265.287 101.972 265.2 101.823C265.112 101.675 265.161 101.484 265.309 101.396L265.312 101.395L265.315 101.393Z" fill="white"/>
<path d="M267.524 100.073L268.176 99.659L268.179 99.6572C268.318 99.5691 268.502 99.6103 268.59 99.7491C268.678 99.8872 268.638 100.07 268.501 100.159L267.846 100.581C267.706 100.672 267.519 100.632 267.429 100.492C267.339 100.353 267.379 100.166 267.518 100.076L267.521 100.074L267.524 100.073Z" fill="white"/>
<path d="M269.678 98.665L270.313 98.2259L270.316 98.2239C270.446 98.1338 270.625 98.1663 270.715 98.2963C270.805 98.4257 270.773 98.603 270.644 98.6937L270.007 99.1423C269.876 99.2345 269.695 99.2033 269.603 99.0724C269.51 98.9415 269.542 98.7608 269.673 98.6684L269.675 98.667L269.678 98.665Z" fill="white"/>
<path d="M271.774 97.1715L272.391 96.707L272.393 96.705C272.515 96.6134 272.688 96.6377 272.78 96.7591C272.871 96.88 272.847 97.0514 272.727 97.1435L272.109 97.6173C271.987 97.711 271.812 97.6881 271.718 97.5659C271.624 97.4437 271.647 97.2686 271.769 97.1748L271.771 97.1734L271.774 97.1715Z" fill="white"/>
<path d="M273.807 95.5944L274.404 95.1052L274.407 95.1031C274.52 95.0105 274.686 95.0269 274.779 95.1398C274.872 95.2521 274.856 95.4176 274.744 95.5105L274.146 96.009C274.033 96.1038 273.864 96.0886 273.769 95.9751C273.674 95.8617 273.689 95.6928 273.803 95.5981L273.805 95.5967L273.807 95.5944Z" fill="white"/>
<path d="M275.773 93.9356L276.349 93.4223L276.351 93.4202C276.456 93.3271 276.616 93.3361 276.709 93.4405C276.802 93.5443 276.794 93.7033 276.691 93.7966L276.114 94.3193C276.009 94.4146 275.847 94.4068 275.751 94.3019C275.656 94.197 275.664 94.0346 275.769 93.9394L275.77 93.938L275.773 93.9356Z" fill="white"/>
<path d="M264.415 54.874L272.999 66.7856C273.163 67.0136 273.413 67.1651 273.692 67.2051C273.97 67.2451 274.253 67.1702 274.475 66.9975L286.127 57.9409C286.26 57.8372 286.317 57.6631 286.271 57.5006C286.225 57.3382 286.085 57.22 285.917 57.2018L264.415 54.874Z" fill="#91B3FA"/>
<path d="M281.81 61.2931L264.415 54.874L279.934 62.7606L279.726 63.8752L281.81 61.2931Z" fill="#7D97F4"/>
<path d="M85.3327 101.236C85.3557 101.227 97.7307 79.5864 99.4028 77.5499C99.6842 77.2073 100.12 77.0329 100.56 77.0853L104.014 77.4964L108.072 86.2622L101.312 82.3307C101.981 86.9505 93.2963 93.8158 90.318 96.3211C90.0158 96.5754 89.9909 97.0306 90.2639 97.316L91.4529 98.559C89.5009 100.535 87.2483 101.804 84.7059 102.39L85.3327 101.236Z" fill="url(#paint16_linear_29_69)"/>
<path d="M90.7653 97.8882C90.7653 97.8882 91.5241 98.1329 91.781 98.8079C91.9039 99.1309 91.7714 99.4966 91.4901 99.6978C90.2406 100.592 86.1187 103.478 84.2166 104.043C84.0607 104.09 83.9123 103.949 83.9474 103.79C84.045 103.349 84.3608 102.468 85.3779 101.178L85.2866 101.362C85.1711 101.595 85.4255 101.838 85.6524 101.71C86.9247 100.993 89.5161 99.4236 90.7653 97.8882Z" fill="url(#paint17_linear_29_69)"/>
<path d="M90.1528 106.547C90.1736 106.534 92.0302 102.067 92.051 102.054C93.7533 91.704 97.9067 82.8404 99.1315 80.508C99.3375 80.1157 99.7285 79.8569 100.171 79.8192L103.636 79.5237L109.387 87.2882L101.97 84.8042C103.561 89.1931 96.448 97.6715 94.039 100.727C93.7945 101.037 93.8625 101.488 94.1876 101.712L95.604 102.689C94.0927 105.018 92.1439 106.716 89.7731 107.804L90.1528 106.547Z" fill="url(#paint18_linear_29_69)"/>
<path d="M94.7944 102.171C94.7944 102.171 95.5872 102.257 95.9757 102.866C96.1615 103.158 96.1059 103.543 95.8713 103.797C94.8288 104.925 91.377 108.584 89.6289 109.522C89.4856 109.599 89.3118 109.491 89.3139 109.329C89.3201 108.877 89.4508 107.95 90.1855 106.481L90.1334 106.68C90.0677 106.932 90.3659 107.119 90.5622 106.947C91.6628 105.988 93.8824 103.927 94.7944 102.171Z" fill="url(#paint19_linear_29_69)"/>
<path d="M119.86 77.8883C119.86 77.8883 122.995 82.5451 123.253 84.6693C123.51 86.7936 122.386 87.5282 119.104 87.799C109.338 88.6052 104.524 85.6825 104.524 85.6825C103.856 81.4292 103.381 80.3473 97.8016 78.0346C97.8016 78.0346 104.858 78.5941 106.279 78.0438C107.699 77.4934 119.86 77.8883 119.86 77.8883Z" fill="url(#paint20_linear_29_69)"/>
<path d="M106.268 57.2918C104.49 57.2772 102.638 57.7433 101.88 56.6839C100.764 55.1259 102.462 50.8944 105.307 49.7926C108.277 48.6426 110.342 51.7378 113.517 50.603C115.996 49.7165 115.805 47.4453 118.116 45.7315C121.951 42.8882 129.601 43.8564 132.462 47.6442C137.139 53.8365 129.111 67.6918 123.027 67.8589C117.631 68.0072 114.625 57.3609 106.268 57.2918Z" fill="url(#paint21_linear_29_69)"/>
<path d="M111.381 77.2719C111.381 77.2719 107.73 73.8002 105.932 71.5009C104.961 70.2579 104.656 68.6216 105.105 67.11C105.926 64.3496 107.384 61.4905 107.517 61.0454C107.721 60.3633 111.814 60.3917 111.814 60.3917C111.814 60.3917 119.87 65.6126 123.036 74.4564L119.481 75.5614C119.481 75.5614 117.377 72.0376 115.299 69.7973C115.299 69.7973 118.895 74.5412 119.022 76.4833L111.381 77.2719Z" fill="url(#paint22_linear_29_69)"/>
<path d="M104.424 78.6419L107.168 75.6613L110.336 76.5132C110.336 76.5132 114.03 77.0847 116.144 76.5132C118.258 75.9417 118.258 75.9417 118.258 75.9417L123.036 74.4565L123.786 76.574C123.976 77.1116 123.785 77.7085 123.319 78.0387C122.906 78.332 122.422 78.6543 122.113 78.7893C121.484 79.0641 107.62 78.8761 107.62 78.8761L104.424 78.6419Z" fill="url(#paint23_linear_29_69)"/>
<path d="M109.001 55.4766L111.752 60.5857C111.571 61.701 108.758 61.7325 108.323 61.0666C108.279 60.9988 108.254 60.9204 108.237 60.8412L106.591 57.4274C106.52 57.0944 107.434 55.9728 107.735 55.8129L108.829 55.2316C109.25 55.0079 107.492 54.9902 109.001 55.4766Z" fill="url(#paint24_linear_29_69)"/>
<path d="M103.432 54.2775C103.432 54.2775 103.122 56.0037 104.48 58.1984C105.839 60.3931 107.192 60.294 107.879 59.5114C108.567 58.7287 109.39 57.4252 109.015 55.2361C108.641 53.047 103.902 52.0763 103.432 54.2775Z" fill="url(#paint25_linear_29_69)"/>
<path d="M107.371 55.4739C107.371 55.4739 105.171 52.5883 103.482 55.1037L103.51 55.9728C103.51 55.9728 102.248 56.6671 102.486 54.6455C102.724 52.6239 103.583 50.4461 106.069 51.1368C108.555 51.8275 110.008 52.614 110.288 54.3375C110.569 56.061 109.16 55.7794 109.16 55.7794C109.16 55.7794 108.622 54.5903 107.972 54.509C107.321 54.4278 107.556 55.3685 107.556 55.3685L107.371 55.4739Z" fill="url(#paint26_linear_29_69)"/>
<path d="M107.875 55.3969C107.875 55.3969 106.736 53.9202 107.773 53.6136C108.811 53.3071 108.772 55.0606 108.704 55.7129L107.875 55.3969Z" fill="url(#paint27_linear_29_69)"/>
<path d="M113.505 79.8216C113.496 79.8221 113.486 79.8223 113.476 79.8223L100.858 79.8086C100.546 79.8083 100.293 79.5555 100.293 79.244C100.294 78.9324 100.548 78.6749 100.859 78.6806L113.478 78.6943C113.79 78.6946 114.042 78.9473 114.042 79.2588C114.041 79.5606 113.804 79.8069 113.505 79.8216Z" fill="url(#paint28_linear_29_69)"/>
<path d="M89.5139 68.381H100.023C100.798 68.381 101.504 68.8278 101.834 69.5279L106.693 79.8149H93.6327C93.1331 79.8149 92.6843 79.51 92.5006 79.0462L88.7331 69.5271C88.5158 68.977 88.9217 68.381 89.5139 68.381Z" fill="url(#paint29_linear_29_69)"/>
<path d="M116.999 55.7494C116.966 55.7494 116.932 55.749 116.899 55.748C115.586 55.7087 114.24 55.0726 112.781 53.8034C110.511 51.8265 109.646 51.502 107.852 51.502C107.8 51.502 107.747 51.5023 107.693 51.5029L107.692 51.4299C107.743 51.4294 107.793 51.4292 107.843 51.4292C109.638 51.4292 110.555 51.7682 112.829 53.7481C114.274 55.0059 115.606 55.6361 116.901 55.6748C118.298 55.7161 119.753 54.8598 120.889 53.3232C121.384 52.653 121.799 51.9117 122.199 51.1946C122.575 50.5226 122.963 49.8277 123.418 49.1907C123.75 48.7265 124.275 48.0686 125.003 47.7153C125.727 47.363 126.553 47.3968 127.105 47.8007L127.062 47.8597C126.531 47.4714 125.736 47.4406 125.035 47.7808C124.322 48.127 123.805 48.7755 123.478 49.2332C123.025 49.8668 122.638 50.5601 122.263 51.2303C121.861 51.9492 121.446 52.6929 120.948 53.3667C119.825 54.8862 118.391 55.7494 116.999 55.7494Z" fill="#91B3FA"/>
<path d="M117.42 57.5866C117.282 57.5866 117.147 57.5789 117.013 57.5634C116.159 57.4644 115.164 56.9436 114.865 56.0033L114.935 55.9814C115.224 56.8907 116.191 57.3949 117.021 57.4911C118.095 57.6154 119.306 57.2261 120.433 56.3949C121.176 55.8471 121.828 55.1685 122.46 54.5121C122.669 54.2948 122.885 54.07 123.102 53.8531C124.054 52.8989 125.093 52.017 126.188 51.2316C126.913 50.7114 127.702 50.2331 128.567 50.2331C128.596 50.2331 128.625 50.2337 128.654 50.2346C129.173 50.254 129.715 50.5368 130.035 50.955C130.281 51.2775 130.372 51.6482 130.29 51.9991L130.219 51.9826C130.296 51.6534 130.21 51.304 129.977 50.9993C129.67 50.5977 129.15 50.3263 128.652 50.3077C127.771 50.2755 126.969 50.7609 126.23 51.2909C125.138 52.0741 124.103 52.9535 123.153 53.9048C122.938 54.1211 122.721 54.3456 122.513 54.5628C121.879 55.2213 121.224 55.9022 120.476 56.4536C119.474 57.1926 118.405 57.5866 117.42 57.5866Z" fill="#91B3FA"/>
<path d="M118.282 58.6868C117.948 58.6868 117.61 58.6211 117.286 58.4577L117.319 58.3925C118.481 58.9788 119.873 58.2281 120.417 57.878C121.028 57.4856 121.601 57.0075 122.155 56.545C123.071 55.7806 124.019 54.9903 125.154 54.5744C125.735 54.3613 126.268 54.2918 126.738 54.3674C127.318 54.4607 127.808 54.7858 128.049 55.2374L127.984 55.2716C127.754 54.8401 127.284 54.5291 126.727 54.4395C126.27 54.3662 125.748 54.4344 125.179 54.6429C124.056 55.0544 123.113 55.8406 122.202 56.6011C121.646 57.0648 121.071 57.5445 120.457 57.9393C119.961 58.2579 119.135 58.6868 118.282 58.6868Z" fill="#91B3FA"/>
<path d="M37.1083 215.527C37.1076 215.483 37.1106 215.439 37.1218 215.394C37.7832 212.776 40.4876 211.434 40.4876 211.434L41.7884 211.535C42.5364 213.843 43.0186 214.97 42.8985 215.6C42.8952 215.618 42.8898 215.635 42.8851 215.652C41.8122 215.748 39.6035 215.81 37.1083 215.527Z" fill="url(#paint30_linear_29_69)"/>
<path d="M42.8853 215.652C42.8273 215.863 42.6717 216.026 42.4725 216.068C40.9459 216.389 38.5198 216.131 37.5012 215.998C37.2765 215.968 37.1122 215.761 37.1085 215.527C39.6035 215.81 41.8122 215.748 42.8853 215.652Z" fill="url(#paint31_linear_29_69)"/>
<path d="M39.4165 209.412L39.9861 212.15C40.0278 212.351 40.1823 212.501 40.3692 212.518C40.5982 212.54 40.924 212.553 41.2516 212.504C41.5455 212.461 41.7501 212.163 41.6981 211.843L41.3021 209.412H39.4165Z" fill="url(#paint32_linear_29_69)"/>
<path d="M53.9383 215.629C52.5489 215.59 51.8304 215.427 51.4589 215.275C51.4581 215.413 51.4589 215.554 51.4633 215.699C51.4681 215.854 51.5834 215.979 51.7251 215.978L59.3534 215.928C59.5967 215.927 59.7391 215.645 59.6335 215.422C58.6334 215.505 56.086 215.689 53.9383 215.629Z" fill="url(#paint33_linear_29_69)"/>
<path d="M59.6335 215.422C59.6243 215.403 59.6164 215.383 59.6034 215.365C58.9297 214.425 57.2139 212.553 53.8234 211.741L52.1968 211.69C52.1968 211.69 51.4726 212.947 51.4589 215.276C51.8304 215.427 52.5489 215.591 53.9383 215.629C56.086 215.689 58.6334 215.505 59.6335 215.422Z" fill="url(#paint34_linear_29_69)"/>
<path d="M51.8952 209.229C51.9133 209.35 52.1363 211.19 52.2225 211.903C52.2431 212.073 52.3661 212.204 52.5211 212.222C52.7981 212.255 53.2462 212.285 53.6384 212.205C53.8499 212.162 54.0029 211.959 54.0029 211.723V208.835L51.8952 209.229Z" fill="url(#paint35_linear_29_69)"/>
<path d="M40.5034 173.459C40.5034 173.459 37.9007 196.561 39.3466 211C39.3466 211 41.0818 211 41.9494 210.712C41.9494 210.712 44.6541 188.123 45.529 181.66C45.5619 181.416 45.9102 181.405 45.9582 181.646C47.0377 187.084 51.2778 208.409 51.7819 210.423C51.7819 210.423 53.2279 211 54.3846 210.423C54.3846 210.423 52.0711 179.523 50.3359 174.037L40.5034 173.459Z" fill="url(#paint36_linear_29_69)"/>
<path d="M35.298 146.602C35.298 146.602 46.2873 144.87 54.9632 147.18L54.3848 156.132C54.3848 156.132 52.0713 168.55 50.3361 174.037C50.3361 174.037 43.6847 175.192 40.5036 173.459C40.5036 173.459 37.9008 157.865 36.4549 155.555C36.4549 155.555 35.0088 149.49 35.298 146.602Z" fill="url(#paint37_linear_29_69)"/>
<path d="M42.9321 138.712L41.8374 146.104C41.8374 146.104 44.8959 147.507 47.0376 146.044L46.5764 140.827L42.9321 138.712Z" fill="url(#paint38_linear_29_69)"/>
<path d="M35.298 146.602C35.298 146.602 18.2357 165.084 38.3346 172.159V170.716C38.3346 170.716 30.8156 164.362 36.5994 155.699C36.5994 155.699 35.8764 147.469 35.298 146.602Z" fill="url(#paint39_linear_29_69)"/>
<path d="M38.4791 170.86C38.4791 170.86 41.0818 169.127 42.2386 169.705C43.3953 170.282 43.3953 171.149 43.3953 171.149C43.3953 171.149 42.817 172.304 41.9494 172.015C41.0818 171.726 39.0575 172.304 38.1899 172.015C38.1899 172.015 37.9007 170.86 38.4791 170.86Z" fill="url(#paint40_linear_29_69)"/>
<path d="M54.9632 147.18C54.9632 147.18 72.7485 165.084 52.6495 172.159V170.716C52.6495 170.716 60.1686 164.362 54.3846 155.699C54.3846 155.699 53.8062 148.624 54.9632 147.18Z" fill="url(#paint41_linear_29_69)"/>
<path d="M52.5049 170.86C52.5049 170.86 49.9022 169.127 48.7455 169.705C47.5887 170.282 47.5887 171.149 47.5887 171.149C47.5887 171.149 48.1671 172.304 49.0346 172.015C49.9022 171.726 51.9266 172.304 52.7941 172.015C52.7941 172.015 53.0833 170.86 52.5049 170.86Z" fill="url(#paint42_linear_29_69)"/>
<path d="M46.13 133.279C46.204 133.349 49.2517 139.325 49.2517 139.325L45.7974 140.99L42.0661 135.754C42.0661 135.754 44.8917 132.115 46.13 133.279Z" fill="url(#paint43_linear_29_69)"/>
<path d="M43.5943 135.899C43.5327 136.058 43.5479 136.236 43.6358 136.383L45.3586 139.25C45.3848 139.294 45.4159 139.333 45.4531 139.368C45.6581 139.558 46.3598 140.113 46.9023 139.358C47.3647 138.715 47.7984 138.13 48.2634 137.888C48.5348 137.747 48.8689 137.86 49.0068 138.133C49.2906 138.695 49.8404 139.84 50.1859 140.926C50.2725 141.198 50.1318 141.49 49.8667 141.597C49.1673 141.88 47.7848 142.392 46.5581 142.561C46.3566 142.589 46.157 142.504 46.0371 142.34C45.5094 141.618 44.0218 139.6 43.5141 139.095C43.0424 138.626 42.1718 138.803 41.7797 138.915C41.6308 138.958 41.4723 138.938 41.3395 138.858C40.9415 138.618 40.2469 138.022 40.8823 137.013C41.0402 136.762 40.9598 136.428 40.7117 136.265C40.2674 135.973 39.7852 135.425 40.2446 134.538C40.7096 133.64 41.54 133.559 42.1057 133.628C42.356 133.659 42.6099 133.528 42.706 133.295C42.7487 133.191 42.8331 133.103 42.9903 133.071C43.2867 133.011 43.4813 132.74 43.4231 132.444C43.3234 131.936 43.3985 131.275 44.211 130.829C45.7015 130.011 47.0071 131.344 47.339 132.47C47.671 133.596 46.0046 134.391 44.9563 134.524C44.1863 134.622 43.7642 135.461 43.5943 135.899Z" fill="url(#paint44_linear_29_69)"/>
<path d="M44.1611 140.149C44.1611 140.149 43.4983 138.212 42.65 138.283C41.8016 138.354 41.1339 139.198 42.1853 140.147C43.4931 141.327 44.1611 140.149 44.1611 140.149Z" fill="url(#paint45_linear_29_69)"/>
<path d="M28.5402 151.986L45.6588 158.454L45.9582 181.646L31.4811 177.02L28.5402 151.986Z" fill="url(#paint46_linear_29_69)"/>
<path d="M63.0878 151.986L45.6588 158.454L45.6698 181.646L60.147 177.02L63.0878 151.986Z" fill="url(#paint47_linear_29_69)"/>
<path d="M46.5973 159.67L62.1995 153.858L61.4269 158.577L46.5973 162.926V159.67Z" fill="#91B3FA"/>
<path d="M46.9567 164.662L51.9396 162.926L51.2013 178.041L47.2881 179.515L46.9567 164.662Z" fill="#91B3FA"/>
<path d="M53.032 162.926L60.8736 160.196L59.323 172.098L52.6495 173.459L53.032 162.926Z" fill="#91B3FA"/>
<path d="M52.5897 174.871L58.8894 173.459V175.755L52.5897 177.574V174.871Z" fill="#91B3FA"/>
<path d="M43.9852 159.67L30.0945 154.325L30.3455 156.979L43.9852 161.305V159.67Z" fill="#7D97F4"/>
<path d="M43.9655 163.443L30.6015 159.67L32.3735 176.05L44.4376 179.516L43.9655 163.443Z" fill="#7D97F4"/>
<path d="M30.3062 169.157C30.2322 168.988 28.844 166.545 29.8504 165.652C30.8567 164.758 31.3353 165.753 31.2661 166.828C31.1967 167.903 30.8668 170.433 30.3062 169.157Z" fill="url(#paint48_linear_29_69)"/>
<path d="M61.4626 169.157C61.5365 168.988 62.9248 166.545 61.9185 165.652C60.9122 164.758 60.4335 165.753 60.5028 166.828C60.5719 167.903 60.902 170.433 61.4626 169.157Z" fill="url(#paint49_linear_29_69)"/>
</g>
<defs>
<linearGradient id="paint0_linear_29_69" x1="331.751" y1="114.563" x2="17.2707" y2="114.563" gradientUnits="userSpaceOnUse">
<stop stop-color="#DAE3FE"/>
<stop offset="1" stop-color="#E9EFFD"/>
</linearGradient>
<linearGradient id="paint1_linear_29_69" x1="89.2048" y1="147.654" x2="144.492" y2="147.654" gradientUnits="userSpaceOnUse">
<stop stop-color="#A737D5"/>
<stop offset="1" stop-color="#EF497A"/>
</linearGradient>
<linearGradient id="paint2_linear_29_69" x1="152.836" y1="160.869" x2="216.166" y2="160.869" gradientUnits="userSpaceOnUse">
<stop stop-color="#B37CFF"/>
<stop offset="1" stop-color="#F895E7"/>
</linearGradient>
<linearGradient id="paint3_linear_29_69" x1="175.865" y1="87.8585" x2="178.685" y2="233.59" gradientUnits="userSpaceOnUse">
<stop stop-color="#09005D"/>
<stop offset="0.3414" stop-color="#0F056F"/>
<stop offset="1" stop-color="#1A0F91"/>
</linearGradient>
<linearGradient id="paint4_linear_29_69" x1="178.384" y1="124.333" x2="163.482" y2="308.009" gradientUnits="userSpaceOnUse">
<stop stop-color="#53D8FF"/>
<stop offset="1" stop-color="#3840F7"/>
</linearGradient>
<linearGradient id="paint5_linear_29_69" x1="77.3309" y1="145.67" x2="276.682" y2="145.67" gradientUnits="userSpaceOnUse">
<stop stop-color="#4042E2"/>
<stop offset="1" stop-color="#4F52FF"/>
</linearGradient>
<linearGradient id="paint6_linear_29_69" x1="211.327" y1="138.259" x2="238.527" y2="138.259" gradientUnits="userSpaceOnUse">
<stop stop-color="#4042E2"/>
<stop offset="1" stop-color="#4F52FF"/>
</linearGradient>
<linearGradient id="paint7_linear_29_69" x1="171.159" y1="148.134" x2="179.055" y2="223.261" gradientUnits="userSpaceOnUse">
<stop stop-color="#09005D"/>
<stop offset="1" stop-color="#1A0F91"/>
</linearGradient>
<linearGradient id="paint8_linear_29_69" x1="143.122" y1="84.5422" x2="212.458" y2="84.5422" gradientUnits="userSpaceOnUse">
<stop stop-color="#FE7062"/>
<stop offset="1" stop-color="#FF928E"/>
</linearGradient>
<linearGradient id="paint9_linear_29_69" x1="169.105" y1="147.054" x2="183.207" y2="43.6808" gradientUnits="userSpaceOnUse">
<stop stop-color="#FE7062"/>
<stop offset="1" stop-color="#FF928E"/>
</linearGradient>
<linearGradient id="paint10_linear_29_69" x1="164.797" y1="38.5672" x2="201.128" y2="169.025" gradientUnits="userSpaceOnUse">
<stop stop-color="#E1473D"/>
<stop offset="1" stop-color="#E9605A"/>
</linearGradient>
<linearGradient id="paint11_linear_29_69" x1="157.884" y1="84.4306" x2="197.92" y2="84.4306" gradientUnits="userSpaceOnUse">
<stop stop-color="#FF928E"/>
<stop offset="1" stop-color="#FEB3B1"/>
</linearGradient>
<linearGradient id="paint12_linear_29_69" x1="156.765" y1="84.4306" x2="199.038" y2="84.4306" gradientUnits="userSpaceOnUse">
<stop stop-color="#E1473D"/>
<stop offset="1" stop-color="#E9605A"/>
</linearGradient>
<linearGradient id="paint13_linear_29_69" x1="168.042" y1="162.287" x2="139.352" y2="193.224" gradientUnits="userSpaceOnUse">
<stop stop-color="#FE7062"/>
<stop offset="1" stop-color="#FF928E"/>
</linearGradient>
<linearGradient id="paint14_linear_29_69" x1="320.365" y1="172.301" x2="276.681" y2="172.301" gradientUnits="userSpaceOnUse">
<stop stop-color="#020039"/>
<stop offset="1" stop-color="#090056"/>
</linearGradient>
<linearGradient id="paint15_linear_29_69" x1="281.345" y1="152.958" x2="236.727" y2="152.958" gradientUnits="userSpaceOnUse">
<stop stop-color="#020039"/>
<stop offset="1" stop-color="#090056"/>
</linearGradient>
<linearGradient id="paint16_linear_29_69" x1="93.6441" y1="87.0174" x2="100.979" y2="106.606" gradientUnits="userSpaceOnUse">
<stop stop-color="#FF928E"/>
<stop offset="1" stop-color="#FEB3B1"/>
</linearGradient>
<linearGradient id="paint17_linear_29_69" x1="84.917" y1="94.2261" x2="93.6835" y2="115.474" gradientUnits="userSpaceOnUse">
<stop stop-color="#CB236D"/>
<stop offset="1" stop-color="#4C246D"/>
</linearGradient>
<linearGradient id="paint18_linear_29_69" x1="113.155" y1="63.9044" x2="98.1314" y2="97.5978" gradientUnits="userSpaceOnUse">
<stop stop-color="#FF928E"/>
<stop offset="1" stop-color="#FEB3B1"/>
</linearGradient>
<linearGradient id="paint19_linear_29_69" x1="88.3252" y1="99.7672" x2="101.21" y2="118.806" gradientUnits="userSpaceOnUse">
<stop stop-color="#CB236D"/>
<stop offset="1" stop-color="#4C246D"/>
</linearGradient>
<linearGradient id="paint20_linear_29_69" x1="100.641" y1="69.1451" x2="116.662" y2="86.7276" gradientUnits="userSpaceOnUse">
<stop stop-color="#4042E2"/>
<stop offset="1" stop-color="#4F52FF"/>
</linearGradient>
<linearGradient id="paint21_linear_29_69" x1="136.782" y1="48.0599" x2="110.727" y2="60.7662" gradientUnits="userSpaceOnUse">
<stop stop-color="#09005D"/>
<stop offset="0.3414" stop-color="#0F056F"/>
<stop offset="1" stop-color="#1A0F91"/>
</linearGradient>
<linearGradient id="paint22_linear_29_69" x1="114.21" y1="69.5389" x2="110.191" y2="99.1934" gradientUnits="userSpaceOnUse">
<stop stop-color="#FE7062"/>
<stop offset="1" stop-color="#FF928E"/>
</linearGradient>
<linearGradient id="paint23_linear_29_69" x1="114.142" y1="59.7798" x2="114.142" y2="82.3737" gradientUnits="userSpaceOnUse">
<stop stop-color="#FF928E"/>
<stop offset="1" stop-color="#FEB3B1"/>
</linearGradient>
<linearGradient id="paint24_linear_29_69" x1="108.964" y1="54.404" x2="109.622" y2="69.0902" gradientUnits="userSpaceOnUse">
<stop stop-color="#FF928E"/>
<stop offset="1" stop-color="#FEB3B1"/>
</linearGradient>
<linearGradient id="paint25_linear_29_69" x1="342.009" y1="257.479" x2="332.626" y2="249.445" gradientUnits="userSpaceOnUse">
<stop stop-color="#FF928E"/>
<stop offset="1" stop-color="#FEB3B1"/>
</linearGradient>
<linearGradient id="paint26_linear_29_69" x1="-38.8123" y1="-1186.8" x2="-35.5221" y2="-1158.58" gradientUnits="userSpaceOnUse">
<stop stop-color="#09005D"/>
<stop offset="0.3414" stop-color="#0F056F"/>
<stop offset="1" stop-color="#1A0F91"/>
</linearGradient>
<linearGradient id="paint27_linear_29_69" x1="343.608" y1="255.61" x2="334.225" y2="247.576" gradientUnits="userSpaceOnUse">
<stop stop-color="#FF928E"/>
<stop offset="1" stop-color="#FEB3B1"/>
</linearGradient>
<linearGradient id="paint28_linear_29_69" x1="115.646" y1="76.4736" x2="105.632" y2="79.7628" gradientUnits="userSpaceOnUse">
<stop stop-color="#09005D"/>
<stop offset="0.3414" stop-color="#0F056F"/>
<stop offset="1" stop-color="#1A0F91"/>
</linearGradient>
<linearGradient id="paint29_linear_29_69" x1="89.2589" y1="74.8394" x2="180.698" y2="67.1352" gradientUnits="userSpaceOnUse">
<stop stop-color="#09005D"/>
<stop offset="0.3414" stop-color="#0F056F"/>
<stop offset="1" stop-color="#1A0F91"/>
</linearGradient>
<linearGradient id="paint30_linear_29_69" x1="40.5994" y1="233.021" x2="40.2547" y2="222.666" gradientUnits="userSpaceOnUse">
<stop stop-color="#7C27DD"/>
<stop offset="1" stop-color="#2B41D9"/>
</linearGradient>
<linearGradient id="paint31_linear_29_69" x1="28.2794" y1="206.521" x2="49.6205" y2="223.302" gradientUnits="userSpaceOnUse">
<stop stop-color="#53D8FF"/>
<stop offset="1" stop-color="#3840F7"/>
</linearGradient>
<linearGradient id="paint32_linear_29_69" x1="41.0109" y1="206.777" x2="39.8546" y2="216.883" gradientUnits="userSpaceOnUse">
<stop stop-color="#FF928E"/>
<stop offset="1" stop-color="#FEB3B1"/>
</linearGradient>
<linearGradient id="paint33_linear_29_69" x1="60.6983" y1="211.492" x2="40.0613" y2="227.72" gradientUnits="userSpaceOnUse">
<stop stop-color="#53D8FF"/>
<stop offset="1" stop-color="#3840F7"/>
</linearGradient>
<linearGradient id="paint34_linear_29_69" x1="54.7404" y1="239.424" x2="55.0851" y2="229.069" gradientUnits="userSpaceOnUse">
<stop stop-color="#7C27DD"/>
<stop offset="1" stop-color="#2B41D9"/>
</linearGradient>
<linearGradient id="paint35_linear_29_69" x1="53.2269" y1="208.07" x2="52.1451" y2="217.524" gradientUnits="userSpaceOnUse">
<stop stop-color="#FF928E"/>
<stop offset="1" stop-color="#FEB3B1"/>
</linearGradient>
<linearGradient id="paint36_linear_29_69" x1="46.5302" y1="207.767" x2="47.8279" y2="167.052" gradientUnits="userSpaceOnUse">
<stop stop-color="#2B3582"/>
<stop offset="1" stop-color="#150E42"/>
</linearGradient>
<linearGradient id="paint37_linear_29_69" x1="45.2257" y1="144.708" x2="43.6442" y2="179.285" gradientUnits="userSpaceOnUse">
<stop stop-color="#FE7062"/>
<stop offset="1" stop-color="#FF928E"/>
</linearGradient>
<linearGradient id="paint38_linear_29_69" x1="41.8374" y1="142.711" x2="47.0376" y2="142.711" gradientUnits="userSpaceOnUse">
<stop stop-color="#FF928E"/>
<stop offset="1" stop-color="#FEB3B1"/>
</linearGradient>
<linearGradient id="paint39_linear_29_69" x1="34.4596" y1="144.215" x2="32.8782" y2="178.793" gradientUnits="userSpaceOnUse">
<stop stop-color="#FE7062"/>
<stop offset="1" stop-color="#FF928E"/>
</linearGradient>
<linearGradient id="paint40_linear_29_69" x1="43.103" y1="169.209" x2="33.86" y2="177.116" gradientUnits="userSpaceOnUse">
<stop stop-color="#F9B776"/>
<stop offset="1" stop-color="#F47960"/>
</linearGradient>
<linearGradient id="paint41_linear_29_69" x1="58.3989" y1="145.31" x2="56.8174" y2="179.888" gradientUnits="userSpaceOnUse">
<stop stop-color="#FE7062"/>
<stop offset="1" stop-color="#FF928E"/>
</linearGradient>
<linearGradient id="paint42_linear_29_69" x1="48.6712" y1="169.635" x2="53.8691" y2="174.84" gradientUnits="userSpaceOnUse">
<stop stop-color="#F9B776"/>
<stop offset="1" stop-color="#F47960"/>
</linearGradient>
<linearGradient id="paint43_linear_29_69" x1="45.126" y1="134.409" x2="47.2608" y2="146.989" gradientUnits="userSpaceOnUse">
<stop stop-color="#FF928E"/>
<stop offset="1" stop-color="#FEB3B1"/>
</linearGradient>
<linearGradient id="paint44_linear_29_69" x1="42.8749" y1="140.363" x2="49.174" y2="133.662" gradientUnits="userSpaceOnUse">
<stop stop-color="#2B3582"/>
<stop offset="1" stop-color="#150E42"/>
</linearGradient>
<linearGradient id="paint45_linear_29_69" x1="43.2686" y1="148.139" x2="42.8889" y2="139.306" gradientUnits="userSpaceOnUse">
<stop stop-color="#FF928E"/>
<stop offset="1" stop-color="#FEB3B1"/>
</linearGradient>
<linearGradient id="paint46_linear_29_69" x1="28.5403" y1="166.816" x2="45.9582" y2="166.816" gradientUnits="userSpaceOnUse">
<stop stop-color="#4042E2"/>
<stop offset="1" stop-color="#4F52FF"/>
</linearGradient>
<linearGradient id="paint47_linear_29_69" x1="63.0878" y1="166.816" x2="45.6588" y2="166.816" gradientUnits="userSpaceOnUse">
<stop stop-color="#4042E2"/>
<stop offset="1" stop-color="#4F52FF"/>
</linearGradient>
<linearGradient id="paint48_linear_29_69" x1="29.4857" y1="167.407" x2="31.2725" y2="167.407" gradientUnits="userSpaceOnUse">
<stop stop-color="#FF928E"/>
<stop offset="1" stop-color="#FEB3B1"/>
</linearGradient>
<linearGradient id="paint49_linear_29_69" x1="62.2829" y1="167.407" x2="60.4961" y2="167.407" gradientUnits="userSpaceOnUse">
<stop stop-color="#FF928E"/>
<stop offset="1" stop-color="#FEB3B1"/>
</linearGradient>
<clipPath id="clip0_29_69">
<rect width="277" height="233" fill="white"/>
</clipPath>
</defs>
</svg>
