<svg width="464" height="307" viewBox="0 0 464 307" fill="none" xmlns="http://www.w3.org/2000/svg">
<g clip-path="url(#clip0_38_926)">
<path d="M38.6642 251.284L187.048 251.284L187.048 94.7024L38.6642 94.7024L38.6642 251.284Z" fill="#E6E6E6"/>
<path d="M32.3689 251.284L184.107 251.284L184.107 94.7024L32.3689 94.7024L32.3689 251.284Z" fill="#F0F0F0"/>
<path d="M38.6642 257.134H187.048V251.284L38.6642 251.284V257.134Z" fill="#E6E6E6"/>
<path d="M21.8793 257.134H173.617V251.284L21.8793 251.284V257.134Z" fill="#F0F0F0"/>
<path d="M175.292 242.469L175.292 103.517L41.1828 103.517L41.1828 242.469L175.292 242.469Z" fill="#FAFAFA"/>
<path d="M129.618 242.469L108.342 103.517H83.92L105.196 242.469H129.618Z" fill="white"/>
<path d="M99.949 242.469L78.673 103.517H69.152L90.428 242.469H99.949Z" fill="white"/>
<path d="M42.3021 242.469L42.3021 103.517H41.1831L41.1831 242.469H42.3021Z" fill="#E6E6E6"/>
<path d="M178.2 167.438H38.274V178.549H178.2V167.438Z" fill="#F0F0F0"/>
<path d="M237.222 382.399H254.285L254.285 175.919H237.222L237.222 382.399Z" fill="#E6E6E6"/>
<path d="M375.303 382.399H392.366V175.919H375.303V382.399Z" fill="#E6E6E6"/>
<path d="M237.222 379.473H379.219V175.919L237.222 175.919L237.222 379.473Z" fill="#F0F0F0"/>
<path d="M243.947 238.233H372.493C374.285 238.233 375.738 236.78 375.738 234.988V182.496C375.738 180.704 374.285 179.251 372.493 179.251H243.947C242.155 179.251 240.702 180.704 240.702 182.496V234.988C240.702 236.78 242.155 238.233 243.947 238.233Z" fill="#E6E6E6"/>
<path d="M243.947 306.746H372.493C374.285 306.746 375.738 305.293 375.738 303.501V251.01C375.738 249.218 374.285 247.765 372.493 247.765H243.947C242.155 247.765 240.702 249.218 240.702 251.01V303.502C240.702 305.293 242.155 306.746 243.947 306.746Z" fill="#E6E6E6"/>
<path d="M281.08 186.527H332.347C334.51 186.527 336.577 183.312 338.065 177.635H275.363C276.85 183.312 278.917 186.527 281.08 186.527Z" fill="#F0F0F0"/>
<path d="M281.08 255.04H332.347C334.51 255.04 336.577 251.825 338.065 246.148H275.363C276.85 251.825 278.917 255.04 281.08 255.04Z" fill="#F0F0F0"/>
<path d="M344.479 147.338C344.479 147.338 344.706 176.151 353.405 176.151C362.104 176.151 362.331 147.338 362.331 147.338H344.479Z" fill="#E6E6E6"/>
<path d="M250.667 147.547C250.667 147.547 251.232 176.151 272.899 176.151C294.566 176.151 295.131 147.547 295.131 147.547H250.667Z" fill="#E6E6E6"/>
<path d="M278.37 154.73C278.37 154.73 278.793 176.15 295.019 176.15C311.244 176.15 311.668 154.73 311.668 154.73H278.37Z" fill="#F0F0F0"/>
<path d="M300.036 160.449C300.036 160.449 300.346 176.151 312.24 176.151C324.134 176.151 324.444 160.449 324.444 160.449H300.036Z" fill="#EBEBEB"/>
<path d="M359.037 151.571C358.931 151.571 358.823 151.547 358.721 151.495C357.772 151.012 349.47 146.652 350.033 142.388C350.249 140.753 351.089 139.432 351.83 138.266C352.989 136.444 353.826 135.127 352.377 133.154C350.156 130.13 352.58 127.661 354.719 125.483C355.726 124.458 356.768 123.397 357.355 122.302C358.236 120.658 357.527 119.407 356.547 117.677C355.71 116.198 354.761 114.523 354.722 112.275C354.596 104.92 360.415 101.616 360.663 101.48C360.999 101.295 361.422 101.416 361.609 101.751C361.795 102.087 361.674 102.511 361.338 102.699C361.12 102.82 356.004 105.754 356.116 112.251C356.148 114.144 356.968 115.591 357.76 116.99C358.777 118.785 359.827 120.64 358.583 122.961C357.902 124.232 356.789 125.365 355.713 126.461C353.399 128.817 352.053 130.362 353.5 132.33C355.514 135.072 354.182 137.167 353.006 139.016C352.31 140.111 351.59 141.243 351.414 142.572C351.045 145.366 357.019 149.065 359.352 150.255C359.695 150.43 359.832 150.85 359.657 151.193C359.535 151.432 359.29 151.571 359.037 151.571Z" fill="#E6E6E6"/>
<path d="M364.121 83.667C364.121 83.667 352.967 95.634 360.519 103.187C374.193 103.186 364.121 83.667 364.121 83.667Z" fill="#F0F0F0"/>
<path d="M348.274 87.1169C348.274 87.1169 349.252 103.447 359.93 103.184C369.357 93.2789 348.274 87.1169 348.274 87.1169Z" fill="#F0F0F0"/>
<path d="M369.029 113.64C369.029 113.64 357.5 112.904 356.755 120.409C362.875 127.878 369.029 113.64 369.029 113.64Z" fill="#F0F0F0"/>
<path d="M347.411 102.747C347.411 102.747 348.771 114.219 356.288 113.595C362.527 106.226 347.411 102.747 347.411 102.747Z" fill="#F0F0F0"/>
<path d="M346.785 123.431C346.785 123.431 353.623 126.402 351.842 130.931C346.128 133.419 346.785 123.431 346.785 123.431Z" fill="#F0F0F0"/>
<path d="M358.078 131.329C358.078 131.329 356.799 136.914 353.126 136.208C350.439 132.243 358.078 131.329 358.078 131.329Z" fill="#F0F0F0"/>
<path d="M362.386 125.755C362.386 125.755 356.62 130.481 353.404 126.828C353.801 120.608 362.386 125.755 362.386 125.755Z" fill="#F0F0F0"/>
<path d="M107.065 289.44H36.202V382.398H107.065V289.44Z" fill="#F5F5F5"/>
<path d="M44.1818 373.85L44.1818 297.987H42.9507L42.9507 373.85H44.1818Z" fill="#E6E6E6"/>
<path d="M99.1909 297.987H42.9509V299.546H99.1909V297.987Z" fill="#E6E6E6"/>
<path d="M179.159 289.44H108.296V382.398H179.159V289.44Z" fill="#F5F5F5"/>
<path d="M179.158 382.398H186.223V289.44H179.158V382.398Z" fill="#E0E0E0"/>
<path d="M116.275 373.85L116.275 297.987H115.044L115.044 373.85H116.275Z" fill="#E6E6E6"/>
<path d="M108.296 382.399L108.296 290.687H107.065L107.065 382.399H108.296Z" fill="#E6E6E6"/>
<path d="M171.285 297.987H115.045V299.546H171.285V297.987Z" fill="#E6E6E6"/>
<path d="M103.399 298.767C104.132 298.767 104.726 299.361 104.726 300.093V321.688C104.726 322.421 104.132 323.015 103.399 323.015C102.667 323.015 102.073 322.421 102.073 321.688V300.093C102.073 299.361 102.667 298.767 103.399 298.767Z" fill="#E0E0E0"/>
<path d="M111.961 298.767C112.694 298.767 113.288 299.361 113.288 300.093V321.688C113.288 322.421 112.694 323.015 111.961 323.015C111.228 323.015 110.635 322.421 110.635 321.688V300.093C110.635 299.361 111.229 298.767 111.961 298.767Z" fill="#E0E0E0"/>
<path d="M188.5 286.276H34V290.686H188.5V286.276Z" fill="#EBEBEB"/>
<path d="M188.5 286.276H176.167V290.686H188.5V286.276Z" fill="#E0E0E0"/>
<path d="M390.087 104.715L389.744 105.654L409.443 112.854L409.786 111.915L390.087 104.715Z" fill="#407BFF"/>
<path d="M378.8 100.589L378.457 101.528L384.742 103.826L385.086 102.886L378.8 100.589Z" fill="#407BFF"/>
<path d="M316.574 81.559L420.624 119.59C426.509 121.741 429.564 128.316 427.413 134.201L347.751 352.152C345.6 358.037 339.025 361.092 333.14 358.941L229.09 320.91C223.205 318.759 220.15 312.184 222.301 306.299L301.963 88.348C304.114 82.463 310.689 79.408 316.574 81.559Z" fill="#407BFF"/>
<path d="M343.714 350.525L423.278 132.841C424.745 128.828 422.681 124.385 418.667 122.919L313.223 84.3791C309.21 82.9121 304.767 84.9761 303.301 88.9901L223.737 306.674C222.27 310.687 224.334 315.13 228.347 316.597L333.791 355.137C337.805 356.602 342.247 354.538 343.714 350.525Z" fill="white"/>
<path d="M377.723 106.42C374.719 110.453 369.423 112.034 364.7 110.308L362.604 109.542C357.881 107.816 354.852 103.192 355.157 98.1731L377.723 106.42Z" fill="#407BFF"/>
<path opacity="0.1" d="M340.654 349.447C341.635 349.805 342.731 349.296 343.089 348.315L421.24 134.497C421.599 133.516 421.089 132.42 420.108 132.062C419.127 131.703 418.031 132.213 417.673 133.194L339.522 347.013C339.164 347.993 339.673 349.088 340.654 349.447Z" fill="#263238"/>
<path opacity="0.1" d="M226.771 307.822C227.752 308.18 228.848 307.671 229.206 306.69L307.357 92.872C307.715 91.891 307.206 90.795 306.225 90.437C305.244 90.078 304.148 90.588 303.79 91.569L225.639 305.388C225.281 306.368 225.79 307.464 226.771 307.822Z" fill="#263238"/>
<g opacity="0.9">
<path d="M338.642 332.729L370.794 124.684C371.583 119.582 368.086 114.807 362.984 114.018L264.426 98.7862C259.324 97.9982 254.549 101.494 253.76 106.597L221.608 314.642C220.82 319.744 224.316 324.519 229.419 325.308L327.977 340.54C333.078 341.328 337.853 337.831 338.642 332.729Z" fill="white"/>
<path d="M329.409 341.149C328.91 341.149 328.406 341.111 327.899 341.033L229.341 325.802C223.974 324.972 220.283 319.932 221.113 314.566L253.265 106.521C253.667 103.921 255.057 101.634 257.179 100.08C259.302 98.5251 261.906 97.8931 264.501 98.2931L363.059 113.524C365.659 113.926 367.946 115.316 369.5 117.438C371.054 119.561 371.689 122.161 371.287 124.76L339.135 332.805C338.385 337.664 334.181 341.149 329.409 341.149ZM262.979 99.1741C261.114 99.1741 259.303 99.7631 257.77 100.886C255.863 102.282 254.614 104.338 254.253 106.673L222.101 314.718C221.74 317.054 222.31 319.39 223.706 321.297C225.102 323.204 227.158 324.453 229.493 324.814L328.051 340.045C332.873 340.788 337.402 337.474 338.147 332.652L370.3 124.607C370.661 122.271 370.091 119.935 368.695 118.028C367.299 116.121 365.243 114.872 362.908 114.511L264.349 99.2801C263.891 99.2091 263.434 99.1741 262.979 99.1741Z" fill="#407BFF"/>
<path d="M347.272 196.15C346.781 196.15 346.287 196.112 345.793 196.036L256.055 182.167C253.533 181.777 251.313 180.429 249.805 178.369C248.297 176.31 247.682 173.787 248.071 171.265L254.645 128.727C255.035 126.204 256.383 123.985 258.442 122.477C260.502 120.968 263.027 120.354 265.546 120.743L355.285 134.611C360.492 135.416 364.074 140.307 363.269 145.513L356.695 188.052C356.305 190.574 354.957 192.794 352.897 194.302C351.242 195.514 349.286 196.15 347.272 196.15ZM264.07 121.628C262.267 121.628 260.516 122.197 259.033 123.282C257.19 124.632 255.982 126.619 255.633 128.878L249.059 171.417C248.71 173.676 249.261 175.935 250.611 177.778C251.961 179.622 253.948 180.829 256.207 181.178L345.945 195.047C348.207 195.395 350.463 194.844 352.306 193.495C354.15 192.145 355.357 190.158 355.706 187.899L362.28 145.36C363 140.698 359.794 136.319 355.132 135.598L265.393 121.73C264.952 121.662 264.509 121.628 264.07 121.628Z" fill="#407BFF"/>
<path d="M335.315 260.81C334.717 260.81 334.111 260.765 333.502 260.67L248.26 247.496C241.813 246.5 237.379 240.445 238.375 233.998C239.372 227.551 245.43 223.119 251.873 224.113L337.115 237.287C340.238 237.769 342.986 239.439 344.853 241.989C346.72 244.538 347.482 247.662 347 250.785C346.098 256.623 341.048 260.81 335.315 260.81ZM250.06 224.974C244.812 224.974 240.189 228.807 239.363 234.151C238.451 240.053 242.51 245.596 248.412 246.508L333.654 259.682C339.557 260.591 345.1 256.534 346.011 250.633C346.453 247.774 345.755 244.914 344.046 242.58C342.337 240.246 339.821 238.718 336.963 238.276L251.721 225.102C251.164 225.016 250.608 224.974 250.06 224.974Z" fill="#407BFF"/>
<path d="M330.987 288.823C330.388 288.823 329.782 288.778 329.173 288.683L243.931 275.51C237.484 274.513 233.05 268.458 234.046 262.012C234.528 258.889 236.198 256.141 238.748 254.274C241.298 252.407 244.423 251.644 247.544 252.128L332.786 265.301C339.233 266.297 343.667 272.352 342.671 278.799C341.769 284.636 336.719 288.823 330.987 288.823ZM245.714 252.986C243.431 252.986 241.215 253.706 239.339 255.081C237.005 256.79 235.477 259.306 235.035 262.165C234.123 268.067 238.182 273.61 244.084 274.522L329.326 287.695C335.231 288.603 340.771 284.547 341.683 278.646C342.595 272.744 338.536 267.201 332.634 266.289L247.392 253.116C246.832 253.029 246.271 252.986 245.714 252.986Z" fill="#407BFF"/>
<path d="M326.675 316.839C326.067 316.839 325.455 316.792 324.843 316.697L239.601 303.524C233.154 302.528 228.72 296.473 229.716 290.026C230.713 283.579 236.77 279.144 243.214 280.141L328.456 293.315C331.579 293.797 334.327 295.467 336.194 298.017C338.061 300.567 338.823 303.69 338.341 306.813L337.847 306.737L338.341 306.814C337.859 309.937 336.189 312.685 333.639 314.552C331.59 316.052 329.168 316.839 326.675 316.839ZM241.402 281.001C236.154 281.001 231.531 284.834 230.705 290.178C229.793 296.08 233.852 301.623 239.754 302.535L324.996 315.708C327.855 316.149 330.715 315.452 333.049 313.743C335.383 312.034 336.911 309.518 337.353 306.66C337.795 303.801 337.097 300.941 335.388 298.607C333.679 296.273 331.163 294.745 328.305 294.303L243.063 281.129C242.505 281.043 241.95 281.001 241.402 281.001Z" fill="#407BFF"/>
<path d="M341.744 216.763C341.533 216.763 341.32 216.747 341.105 216.714L298.462 210.124C297.361 209.954 296.393 209.365 295.735 208.467C295.077 207.569 294.809 206.468 294.979 205.368C295.33 203.097 297.463 201.533 299.735 201.885L342.377 208.475C343.478 208.645 344.446 209.233 345.104 210.131C345.762 211.029 346.03 212.13 345.86 213.23C345.543 215.287 343.764 216.763 341.744 216.763ZM299.097 202.835C297.562 202.835 296.21 203.957 295.968 205.52C295.839 206.356 296.043 207.193 296.543 207.876C297.043 208.559 297.779 209.006 298.615 209.135L341.258 215.725C342.095 215.854 342.931 215.65 343.614 215.15C344.297 214.65 344.744 213.914 344.873 213.078C345.002 212.242 344.798 211.405 344.298 210.722C343.798 210.039 343.062 209.592 342.226 209.463L299.583 202.873C299.419 202.848 299.257 202.835 299.097 202.835Z" fill="#263238"/>
<path d="M339.881 228.82C339.67 228.82 339.457 228.804 339.242 228.771L278.653 219.407C277.552 219.237 276.584 218.649 275.926 217.751C275.268 216.852 275 215.752 275.17 214.652C275.34 213.551 275.928 212.583 276.826 211.925C277.724 211.267 278.826 210.999 279.925 211.169L340.514 220.532C342.786 220.883 344.348 223.017 343.997 225.288C343.68 227.345 341.9 228.82 339.881 228.82ZM279.282 212.119C278.615 212.119 277.966 212.33 277.417 212.732C276.734 213.232 276.287 213.968 276.158 214.804C276.029 215.64 276.233 216.477 276.733 217.16C277.233 217.843 277.969 218.29 278.805 218.419L339.394 227.783C341.12 228.054 342.742 226.863 343.009 225.136C343.276 223.409 342.088 221.788 340.362 221.521L279.773 212.158C279.609 212.132 279.445 212.119 279.282 212.119Z" fill="#263238"/>
<path d="M282.877 162.534C287.979 156.969 287.604 148.322 282.039 143.22C276.474 138.118 267.827 138.493 262.724 144.058C257.622 149.623 257.998 158.27 263.562 163.372C269.127 168.474 277.775 168.099 282.877 162.534Z" fill="#407BFF"/>
</g>
<g opacity="0.9">
<path d="M263.336 337.813L268.986 127.374C269.125 122.213 265.053 117.917 259.892 117.779L160.2 115.103C155.039 114.964 150.743 119.036 150.605 124.197L144.955 334.636C144.816 339.797 148.888 344.093 154.049 344.231L253.741 346.907C258.901 347.045 263.197 342.973 263.336 337.813Z" fill="#407BFF"/>
<path opacity="0.1" d="M263.336 337.813L268.986 127.374C269.125 122.213 265.053 117.917 259.892 117.779L160.2 115.103C155.039 114.964 150.743 119.036 150.605 124.197L144.955 334.636C144.816 339.797 148.888 344.093 154.049 344.231L253.741 346.907C258.901 347.045 263.197 342.973 263.336 337.813Z" fill="black"/>
<path opacity="0.2" d="M259.909 288.296L261.064 245.268C261.198 240.269 257.254 236.107 252.255 235.973L161.484 233.536C156.485 233.402 152.323 237.346 152.189 242.345L151.034 285.373C150.9 290.372 154.844 294.534 159.843 294.668L250.614 297.105C255.613 297.239 259.774 293.295 259.909 288.296Z" fill="#263238"/>
<path d="M263.588 151.247C263.756 144.992 258.821 139.785 252.566 139.617L166.343 137.302C160.088 137.134 154.881 142.069 154.713 148.324C154.545 154.579 159.48 159.786 165.735 159.954L251.958 162.269C258.213 162.437 263.42 157.502 263.588 151.247Z" fill="white"/>
<path d="M262.77 181.708C262.938 175.453 258.003 170.246 251.748 170.078L165.525 167.763C159.27 167.595 154.063 172.53 153.895 178.785C153.727 185.04 158.662 190.247 164.917 190.415L251.14 192.73C257.395 192.898 262.602 187.963 262.77 181.708Z" fill="white"/>
<path d="M261.952 212.169C262.12 205.914 257.185 200.707 250.93 200.539L164.707 198.224C158.452 198.056 153.245 202.991 153.077 209.246C152.909 215.501 157.844 220.708 164.099 220.876L250.322 223.191C256.578 223.359 261.784 218.425 261.952 212.169Z" fill="white"/>
</g>
<path d="M77.693 163.136L76.505 164.482L75.259 165.931L72.803 168.896C71.201 170.903 69.621 172.924 68.167 175.002C65.223 179.12 62.608 183.416 60.858 187.675C60.426 188.735 60.057 189.788 59.759 190.823C59.487 191.681 59.318 192.635 59.178 193.709C58.927 195.849 58.956 198.275 59.124 200.758C59.468 205.722 60.4191 211.035 61.397 216.138L54.911 218.77C53.391 216.18 52.176 213.652 51.062 210.954C49.952 208.277 49.006 205.504 48.266 202.596C47.518 199.687 46.996 196.637 46.905 193.303C46.853 191.643 46.968 189.862 47.295 188.048C47.606 186.414 48.011 184.839 48.481 183.314C50.429 177.253 53.319 171.975 56.528 167.056C58.157 164.611 59.856 162.243 61.676 159.978C62.581 158.841 63.506 157.723 64.467 156.628C64.947 156.08 65.428 155.53 65.931 154.993C66.446 154.438 66.908 153.949 67.525 153.32L77.693 163.136Z" fill="#263238"/>
<path d="M62.518 216.235L65.224 218.678L55.734 223.657C55.734 223.657 55.109 222.633 54.706 221.131C54.009 218.535 55.735 215.807 58.407 215.197C59.891 214.857 61.42 215.243 62.518 216.235Z" fill="#FFB573"/>
<path d="M68.858 224.834L60.836 228.59L55.733 223.656L65.223 218.678L68.858 224.834Z" fill="#FFB573"/>
<path d="M103.501 126.514C103.46 127.179 103.779 127.726 104.214 127.735C104.649 127.744 105.034 127.212 105.075 126.547C105.116 125.882 104.797 125.335 104.362 125.326C103.927 125.317 103.542 125.849 103.501 126.514Z" fill="#263238"/>
<path d="M103.718 127.725C103.718 127.725 104.994 131.595 106.544 133.481C105.301 134.555 103.332 134.011 103.332 134.011L103.718 127.725Z" fill="#FF5652"/>
<path d="M101.311 122.772C101.408 122.789 101.513 122.77 101.604 122.709C103.064 121.73 104.357 122.234 104.411 122.258C104.606 122.338 104.839 122.241 104.928 122.042C105.017 121.842 104.931 121.616 104.736 121.535C104.667 121.506 103.017 120.84 101.187 122.066C101.004 122.189 100.95 122.432 101.065 122.61C101.123 122.699 101.213 122.755 101.311 122.772Z" fill="#263238"/>
<path d="M84.263 129.052C85.059 135.188 85.334 147.584 80.854 151.053C80.854 151.053 82.309 156.057 93.522 157.455C105.851 158.992 99.806 152.116 99.806 152.116C93.18 149.682 93.673 144.749 95.146 140.242L84.263 129.052Z" fill="#FFB573"/>
<path d="M113.356 179.637C113.242 182.444 113.049 185.533 112.754 188.936C111.974 198.19 110.496 209.723 107.983 224.053H63.859C63.833 217.79 68.618 189.05 65.191 159.518C64.718 155.441 67.718 151.627 71.832 151.106C74.07 150.822 76.579 150.568 79.04 150.45C84.688 150.18 92.86 150.001 97.795 150.45C100.786 150.729 103.688 151.235 105.951 151.701C109.147 152.359 111.581 154.819 112.256 158.008C113.095 161.968 113.807 168.656 113.356 179.637Z" fill="#263238"/>
<path opacity="0.3" d="M104.411 224.178C104.404 224.178 104.397 224.177 104.39 224.176C104.322 224.164 104.276 224.099 104.288 224.031C106.602 210.836 108.207 199.025 109.058 188.925C109.337 185.709 109.539 182.582 109.66 179.631C110.127 168.264 109.321 161.612 108.564 158.032C108.549 157.965 108.593 157.898 108.66 157.884C108.731 157.869 108.794 157.913 108.808 157.98C109.899 163.133 110.28 170.623 109.91 179.64C109.79 182.595 109.587 185.725 109.307 188.945C108.455 199.052 106.849 210.871 104.534 224.073C104.523 224.136 104.471 224.178 104.411 224.178Z" fill="black"/>
<path opacity="0.2" d="M105.538 172.92C105.425 179.15 108.638 193.14 111.659 199.53C112.124 195.7 112.487 192.18 112.759 188.94C112.991 186.17 113.165 183.62 113.28 181.26L105.538 172.92Z" fill="black"/>
<path d="M141.484 188.163L148.852 183.78L150.193 193.858C150.193 193.858 144.352 195.495 141.077 193.525L141.484 188.163Z" fill="#FFB573"/>
<path d="M158.544 184.503L156.114 192.546L150.193 193.857L148.852 183.78L158.544 184.503Z" fill="#FFB573"/>
<path d="M111.115 156.02C111.503 156.899 111.746 157.538 112.002 158.201C112.254 158.851 112.477 159.476 112.698 160.094L113.976 163.728C114.817 166.115 115.627 168.47 116.488 170.775C117.345 173.077 118.209 175.349 119.162 177.502C120.092 179.654 121.09 181.74 122.15 183.456C122.677 184.302 123.203 185.07 123.644 185.583C123.859 185.838 124.046 186.023 124.13 186.11C124.169 186.15 124.19 186.182 124.157 186.176C124.118 186.169 124.164 186.197 124.222 186.228L124.365 186.323C124.806 186.566 125.546 186.822 126.418 186.988C127.294 187.159 128.302 187.228 129.367 187.278C133.648 187.403 138.681 186.658 143.428 185.903L143.666 185.865C145.6 185.558 147.417 186.876 147.724 188.81C147.954 190.256 147.271 191.638 146.105 192.371C144.844 193.161 143.697 193.815 142.449 194.442C141.22 195.072 139.957 195.637 138.663 196.164C136.07 197.208 133.352 198.076 130.363 198.601C128.867 198.876 127.297 199.022 125.607 199.023C123.918 199.013 122.093 198.862 120.108 198.242L119.355 197.981C119.112 197.897 118.86 197.805 118.536 197.648C117.921 197.366 117.395 197.058 116.899 196.741C115.919 196.106 115.131 195.443 114.438 194.789C113.066 193.476 112.021 192.193 111.108 190.912C107.553 185.824 105.388 180.876 103.316 175.889C102.316 173.399 101.378 170.917 100.517 168.451L99.254 164.802L98.658 163.061C98.472 162.516 98.269 161.949 98.151 161.647L98.073 161.448C96.651 157.815 98.443 153.717 102.076 152.295C105.612 150.912 109.592 152.585 111.115 156.02Z" fill="#263238"/>
<path d="M81.416 124.641C81.415 132.822 80.998 137.627 84.864 141.907C90.679 148.345 100.986 144.814 103.435 136.698C105.639 129.393 105.27 117.241 97.479 113.823C89.802 110.455 81.417 116.459 81.416 124.641Z" fill="#FFB573"/>
<path d="M99.91 128.75C100.613 126.833 103.406 118.583 98.219 116C93.032 113.417 86.189 112.625 81.99 114.458C77.791 116.291 74.685 123 74.685 123C74.685 123 76.654 137.125 84.926 139.667C93.198 142.208 102.511 132.417 99.91 128.75Z" fill="#263238"/>
<path d="M97.912 117.056C99.062 116.778 100.378 115.784 100.378 115.784C103.36 112.869 98.065 110.917 92.806 110.444C86.861 109.91 78.328 112.277 74.942 116.666C78.153 118.316 93.331 118.389 97.912 117.056Z" fill="#263238"/>
<path d="M97.417 116.238C98.419 116.306 99.74 115.823 99.74 115.823C103.765 113.855 99.135 111.188 95.008 109.433C90.342 107.449 82.832 107.2 78.956 109.961C81.121 112.16 93.368 116.156 97.417 116.238Z" fill="#263238"/>
<path d="M96.318 127.616C96.302 129.534 97.067 131.36 98.055 132.568C99.541 134.385 101.293 133.328 101.725 131.177C102.114 129.241 101.809 125.963 99.911 124.932C98.041 123.915 96.336 125.424 96.318 127.616Z" fill="#FFB573"/>
<path d="M92.334 224.054C92.334 224.054 93.694 286.483 85.381 309.502C72.214 345.964 57.922 388.283 57.922 388.283L42.864 384.93C42.864 384.93 54.957 338.881 61.593 308.167C67.554 280.575 62.946 246.591 63.86 224.054C74.139 224.054 92.334 224.054 92.334 224.054Z" fill="#407BFF"/>
<g opacity="0.3">
<path d="M92.334 224.054C92.334 224.054 93.694 286.483 85.381 309.502C72.214 345.964 57.922 388.283 57.922 388.283L42.864 384.93C42.864 384.93 54.957 338.881 61.593 308.167C67.554 280.575 62.946 246.591 63.86 224.054C74.139 224.054 92.334 224.054 92.334 224.054Z" fill="white"/>
</g>
<path opacity="0.2" d="M92.401 237.964C88.286 236.747 85.022 237.206 84.028 240.911C81.436 250.584 87 276.092 89.815 287.762C91.828 271.042 92.33 251.044 92.401 237.964Z" fill="black"/>
<path d="M107.988 224.054C107.988 224.054 117.152 276.507 117.006 301.667C116.843 329.883 105.421 396.655 105.421 396.655H91.445C91.445 396.655 93.206 329.534 93.627 303.834C94.086 275.816 78.981 224.054 78.981 224.054H107.988Z" fill="#407BFF"/>
<g opacity="0.3">
<path d="M107.988 224.054C107.988 224.054 117.152 276.507 117.006 301.667C116.843 329.883 105.421 396.655 105.421 396.655H91.445C91.445 396.655 93.206 329.534 93.627 303.834C94.086 275.816 78.981 224.054 78.981 224.054H107.988Z" fill="white"/>
</g>
<path d="M92.271 241.958C92.227 241.958 92.183 241.946 92.144 241.923L86.325 238.485C86.259 238.445 86.214 238.378 86.204 238.301L85.009 228.988C85 228.917 85.022 228.845 85.07 228.791C85.117 228.737 85.186 228.706 85.258 228.706H96.425C96.552 228.706 96.658 228.801 96.674 228.927L97.738 238.01C97.748 238.101 97.708 238.191 97.633 238.244L92.417 241.911C92.372 241.943 92.321 241.958 92.271 241.958ZM86.684 238.118L92.259 241.411L97.221 237.923L96.2 229.209H85.54L86.684 238.118Z" fill="white"/>
</g>
<defs>
<clipPath id="clip0_38_926">
<rect width="464" height="307" fill="white"/>
</clipPath>
</defs>
</svg>
