<svg width="326" height="131" viewBox="0 0 326 131" fill="none" xmlns="http://www.w3.org/2000/svg">
<path d="M69.727 65.4744C72.3657 62.8258 74 59.1702 74 55.129C74 47.0465 67.4663 40.5 59.4072 40.5H40V69.758H58.6036C61.7088 69.758 64.2215 72.2803 64.2215 75.3898C64.2215 76.9462 63.595 78.3524 62.577 79.373C61.559 80.3867 60.1562 81.0215 58.6036 81.0215H49.1929V90.5H59.4072C63.4384 90.5 67.0849 88.8651 69.727 86.2164C72.3657 83.5746 74 79.9157 74 75.8778C74 71.84 72.3555 68.1538 69.6964 65.5017C69.7066 65.4949 69.7168 65.4846 69.727 65.4744ZM62.1446 58.1633C61.2185 59.0917 59.9417 59.6651 58.5321 59.6651H49.1929V49.4255H58.5321C61.3513 49.4255 63.6393 51.7158 63.6393 54.5453C63.6393 55.9584 63.0673 57.2383 62.1446 58.1633Z" fill="#171923"/>
<path d="M110.021 41.3164H110.004C112.623 42.5996 113.924 44.5859 113.924 47.293C113.924 49.5605 113.133 51.3184 111.568 52.584C110.004 53.8496 107.842 54.4824 105.1 54.4824H92.1445V29.2754H104.449C107.016 29.2754 109.09 29.9082 110.672 31.1738C112.254 32.4395 113.045 34.0918 113.045 36.1484C113.045 38.4512 112.043 40.1738 110.021 41.3164ZM104.449 34.4082L97.9805 34.4434V39.4883H104.449C105.24 39.4883 105.891 39.2422 106.4 38.7324C106.91 38.2227 107.174 37.6074 107.174 36.8867C107.174 36.166 106.91 35.5684 106.4 35.0938C105.891 34.6191 105.24 34.3906 104.449 34.4082ZM105.1 49.3848C105.996 49.3848 106.699 49.1387 107.209 48.6465C107.719 48.1543 107.982 47.5215 107.982 46.7656C107.982 45.9746 107.736 45.3418 107.227 44.8672C106.717 44.3926 106.014 44.1641 105.1 44.1641H97.9805V49.3848H105.1ZM117.193 54.5V29.293H123.24V54.5H117.193ZM138.146 55.0098L138.164 55.1152C135.193 55.1152 132.68 54.377 130.623 52.9004C128.566 51.4238 127.143 49.6133 126.352 47.4688L132.047 45.7109C132.557 46.959 133.365 47.9609 134.49 48.7344C135.615 49.5078 136.969 49.8945 138.551 49.8945C139.729 49.8945 140.678 49.666 141.398 49.1914C142.119 48.7168 142.488 48.1543 142.488 47.5039C142.488 46.4668 141.592 45.6582 139.781 45.0781L133.295 43.0742C131.537 42.5293 130.131 41.668 129.076 40.5078C128.021 39.3477 127.512 37.9766 127.529 36.3945C127.512 34.3027 128.391 32.5273 130.166 31.0684C131.941 29.6094 134.174 28.8711 136.863 28.8711C139.518 28.8711 141.873 29.5039 143.912 30.7871C145.951 32.0703 147.322 33.6348 148.008 35.4805L142.506 37.0977C141.996 36.2012 141.24 35.4805 140.238 34.918C139.236 34.3555 138.129 34.0742 136.916 34.0742C135.914 34.0742 135.105 34.2676 134.49 34.6543C133.875 35.041 133.576 35.5332 133.576 36.1309C133.576 36.9922 134.139 37.5898 135.264 37.9238L141.609 39.9453C143.807 40.6309 145.512 41.4922 146.707 42.5293C147.902 43.5664 148.5 45.0605 148.5 47.0117C148.5 49.2969 147.551 51.1953 145.635 52.7246C143.719 54.2539 141.223 55.0098 138.146 55.0098ZM170.684 29.293V34.707H162.65V54.5H156.674V34.707H148.658V29.293H170.684ZM192.34 34.707H179.209V39.084H190.512V44.3047H179.209V49.1035H192.305V54.5H173.373V29.293H192.34V34.707ZM211.535 54.5L206.156 46.2207H201.832V54.5H195.926V29.293H208.529C211.184 29.293 213.346 30.1543 214.998 31.877C216.65 33.5996 217.477 35.5684 217.477 37.8008C217.477 39.4531 217.02 40.9824 216.123 42.3711C215.227 43.7598 213.961 44.7969 212.326 45.4648L218.408 54.5H211.535ZM201.832 34.6367L201.814 40.9824H208.072C209.109 40.9824 209.971 40.666 210.639 40.0508C211.307 39.4355 211.641 38.6797 211.641 37.7832C211.641 36.9219 211.324 36.1836 210.674 35.5684C210.023 34.9531 209.25 34.6367 208.336 34.6367H201.832ZM236.883 54.5L231.504 46.2207H227.18V54.5H221.273V29.293H233.877C236.531 29.293 238.693 30.1543 240.346 31.877C241.998 33.5996 242.824 35.5684 242.824 37.8008C242.824 39.4531 242.367 40.9824 241.471 42.3711C240.574 43.7598 239.309 44.7969 237.674 45.4648L243.756 54.5H236.883ZM227.18 34.6367L227.162 40.9824H233.42C234.457 40.9824 235.318 40.666 235.986 40.0508C236.654 39.4355 236.988 38.6797 236.988 37.7832C236.988 36.9219 236.672 36.1836 236.021 35.5684C235.371 34.9531 234.598 34.6367 233.684 34.6367H227.18ZM261.211 29.293H267.908L258.521 45.4297V54.5H252.475V45.4297L243.035 29.293H249.768L255.498 39.5938L261.211 29.293ZM98.1387 92.0332H109.986V97.5H92.1621V72.293H98.1387V92.0332ZM124.506 98.0098V98.0449C120.674 98.0449 117.492 96.7969 114.961 94.3008C112.43 91.8047 111.164 88.6758 111.164 84.9316C111.164 81.1875 112.43 78.0586 114.961 75.5625C117.492 73.0664 120.674 71.8184 124.506 71.8184C128.338 71.8184 131.52 73.0664 134.051 75.5625C136.582 78.0586 137.848 81.1699 137.848 84.9141C137.848 88.6582 136.582 91.7695 134.051 94.2656C131.52 96.7617 128.338 98.0098 124.506 98.0098ZM124.506 92.5254C126.686 92.5254 128.443 91.8047 129.779 90.3633C131.115 88.9219 131.783 87.1113 131.783 84.9316C131.783 82.752 131.115 80.9414 129.779 79.5C128.443 78.0586 126.686 77.3379 124.506 77.3379C122.326 77.3379 120.568 78.0586 119.232 79.5C117.896 80.9414 117.229 82.752 117.229 84.9316C117.229 87.1113 117.896 88.9219 119.232 90.3633C120.568 91.8047 122.326 92.5254 124.506 92.5254ZM166.623 83.1738L166.588 86.1445C166.588 89.6074 165.41 92.4375 163.055 94.6523C160.699 96.8672 157.605 97.9746 153.773 97.9746C149.854 97.9746 146.619 96.7266 144.053 94.2129C141.486 91.6992 140.203 88.5879 140.203 84.8613C140.203 81.1348 141.469 78.0234 144.018 75.5098C146.566 72.9961 149.713 71.748 153.475 71.748C156.516 71.748 159.117 72.4863 161.262 73.9805C163.406 75.4746 164.9 77.3379 165.744 79.5703L160.189 81.1523C158.871 78.6387 156.656 77.373 153.545 77.373C151.418 77.373 149.678 78.0938 148.307 79.5352C146.936 80.9766 146.25 82.7344 146.25 84.8262C146.25 86.918 146.953 88.7109 148.359 90.2051C149.766 91.6992 151.734 92.4375 154.248 92.4375C155.953 92.4375 157.324 92.0332 158.379 91.2246C159.434 90.416 160.084 89.4316 160.348 88.2891L153.738 88.3242V83.1738H166.623ZM169.963 97.5V72.293H176.01V97.5H169.963ZM190.916 98.0098L190.934 98.1152C187.963 98.1152 185.449 97.377 183.393 95.9004C181.336 94.4238 179.912 92.6133 179.121 90.4688L184.816 88.7109C185.326 89.959 186.135 90.9609 187.26 91.7344C188.385 92.5078 189.738 92.8945 191.32 92.8945C192.498 92.8945 193.447 92.666 194.168 92.1914C194.889 91.7168 195.258 91.1543 195.258 90.5039C195.258 89.4668 194.361 88.6582 192.551 88.0781L186.064 86.0742C184.307 85.5293 182.9 84.668 181.846 83.5078C180.791 82.3477 180.281 80.9766 180.299 79.3945C180.281 77.3027 181.16 75.5273 182.936 74.0684C184.711 72.6094 186.943 71.8711 189.633 71.8711C192.287 71.8711 194.643 72.5039 196.682 73.7871C198.721 75.0703 200.092 76.6348 200.777 78.4805L195.275 80.0977C194.766 79.2012 194.01 78.4805 193.008 77.918C192.006 77.3555 190.898 77.0742 189.686 77.0742C188.684 77.0742 187.875 77.2676 187.26 77.6543C186.645 78.041 186.346 78.5332 186.346 79.1309C186.346 79.9922 186.908 80.5898 188.033 80.9238L194.379 82.9453C196.576 83.6309 198.281 84.4922 199.477 85.5293C200.672 86.5664 201.27 88.0605 201.27 90.0117C201.27 92.2969 200.32 94.1953 198.404 95.7246C196.488 97.2539 193.992 98.0098 190.916 98.0098ZM223.453 72.293V77.707H215.42V97.5H209.443V77.707H201.428V72.293H223.453ZM226.143 97.5V72.293H232.189V97.5H226.143ZM248.854 98.0098H248.801C244.986 98.0098 241.822 96.7617 239.291 94.2656C236.76 91.7695 235.494 88.6406 235.494 84.8965C235.494 81.1875 236.76 78.0762 239.273 75.5625C241.787 73.0488 244.934 71.8008 248.695 71.8008C252.035 71.8008 254.795 72.6445 256.975 74.3496C259.154 76.0547 260.525 78.0234 261.07 80.2559L255.234 81.6973C254.9 80.5547 254.145 79.5527 252.967 78.6914C251.789 77.8301 250.383 77.4082 248.748 77.4082C246.621 77.4082 244.898 78.1289 243.598 79.5703C242.297 81.0117 241.646 82.7695 241.646 84.8613C241.646 86.918 242.314 88.6934 243.633 90.1699C244.951 91.6465 246.674 92.3848 248.783 92.3848C250.436 92.3848 251.842 91.9629 253.002 91.1367C254.162 90.3105 254.918 89.3262 255.252 88.1836L261.088 89.6602C260.543 91.8574 259.189 93.791 257.027 95.4785C254.865 97.166 252.141 98.0098 248.854 98.0098ZM274.588 98.0098L274.605 98.1152C271.635 98.1152 269.121 97.377 267.064 95.9004C265.008 94.4238 263.584 92.6133 262.793 90.4688L268.488 88.7109C268.998 89.959 269.807 90.9609 270.932 91.7344C272.057 92.5078 273.41 92.8945 274.992 92.8945C276.17 92.8945 277.119 92.666 277.84 92.1914C278.561 91.7168 278.93 91.1543 278.93 90.5039C278.93 89.4668 278.033 88.6582 276.223 88.0781L269.736 86.0742C267.979 85.5293 266.572 84.668 265.518 83.5078C264.463 82.3477 263.953 80.9766 263.971 79.3945C263.953 77.3027 264.832 75.5273 266.607 74.0684C268.383 72.6094 270.615 71.8711 273.305 71.8711C275.959 71.8711 278.314 72.5039 280.354 73.7871C282.393 75.0703 283.764 76.6348 284.449 78.4805L278.947 80.0977C278.438 79.2012 277.682 78.4805 276.68 77.918C275.678 77.3555 274.57 77.0742 273.357 77.0742C272.355 77.0742 271.547 77.2676 270.932 77.6543C270.316 78.041 270.018 78.5332 270.018 79.1309C270.018 79.9922 270.58 80.5898 271.705 80.9238L278.051 82.9453C280.248 83.6309 281.953 84.4922 283.148 85.5293C284.344 86.5664 284.941 88.0605 284.941 90.0117C284.941 92.2969 283.992 94.1953 282.076 95.7246C280.16 97.2539 277.664 98.0098 274.588 98.0098Z" fill="#171923"/>
</svg>
