<svg width="193" height="71" viewBox="0 0 193 71" fill="none" xmlns="http://www.w3.org/2000/svg">
<path d="M18.0215 13.3164H18.0039C20.623 14.5996 21.9238 16.5859 21.9238 19.293C21.9238 21.5605 21.1328 23.3184 19.5684 24.584C18.0039 25.8496 15.8418 26.4824 13.0996 26.4824H0.144531V1.27539H12.4492C15.0156 1.27539 17.0898 1.9082 18.6719 3.17383C20.2539 4.43945 21.0449 6.0918 21.0449 8.14844C21.0449 10.4512 20.043 12.1738 18.0215 13.3164ZM12.4492 6.4082L5.98047 6.44336V11.4883H12.4492C13.2402 11.4883 13.8906 11.2422 14.4004 10.7324C14.9102 10.2227 15.1738 9.60742 15.1738 8.88672C15.1738 8.16602 14.9102 7.56836 14.4004 7.09375C13.8906 6.61914 13.2402 6.39062 12.4492 6.4082ZM13.0996 21.3848C13.9961 21.3848 14.6992 21.1387 15.209 20.6465C15.7188 20.1543 15.9824 19.5215 15.9824 18.7656C15.9824 17.9746 15.7363 17.3418 15.2266 16.8672C14.7168 16.3926 14.0137 16.1641 13.0996 16.1641H5.98047V21.3848H13.0996ZM25.1934 26.5V1.29297H31.2402V26.5H25.1934ZM46.1465 27.0098L46.1641 27.1152C43.1934 27.1152 40.6797 26.377 38.623 24.9004C36.5664 23.4238 35.1426 21.6133 34.3516 19.4688L40.0469 17.7109C40.5566 18.959 41.3652 19.9609 42.4902 20.7344C43.6152 21.5078 44.9688 21.8945 46.5508 21.8945C47.7285 21.8945 48.6777 21.666 49.3984 21.1914C50.1191 20.7168 50.4883 20.1543 50.4883 19.5039C50.4883 18.4668 49.5918 17.6582 47.7812 17.0781L41.2949 15.0742C39.5371 14.5293 38.1309 13.668 37.0762 12.5078C36.0215 11.3477 35.5117 9.97656 35.5293 8.39453C35.5117 6.30273 36.3906 4.52734 38.166 3.06836C39.9414 1.60938 42.1738 0.871094 44.8633 0.871094C47.5176 0.871094 49.873 1.50391 51.9121 2.78711C53.9512 4.07031 55.3223 5.63477 56.0078 7.48047L50.5059 9.09766C49.9961 8.20117 49.2402 7.48047 48.2383 6.91797C47.2363 6.35547 46.1289 6.07422 44.916 6.07422C43.9141 6.07422 43.1055 6.26758 42.4902 6.6543C41.875 7.04102 41.5762 7.5332 41.5762 8.13086C41.5762 8.99219 42.1387 9.58984 43.2637 9.92383L49.6094 11.9453C51.8066 12.6309 53.5117 13.4922 54.707 14.5293C55.9023 15.5664 56.5 17.0605 56.5 19.0117C56.5 21.2969 55.5508 23.1953 53.6348 24.7246C51.7188 26.2539 49.2227 27.0098 46.1465 27.0098ZM78.6836 1.29297V6.70703H70.6504V26.5H64.6738V6.70703H56.6582V1.29297H78.6836ZM100.34 6.70703H87.209V11.084H98.5117V16.3047H87.209V21.1035H100.305V26.5H81.373V1.29297H100.34V6.70703ZM119.535 26.5L114.156 18.2207H109.832V26.5H103.926V1.29297H116.529C119.184 1.29297 121.346 2.1543 122.998 3.87695C124.65 5.59961 125.477 7.56836 125.477 9.80078C125.477 11.4531 125.02 12.9824 124.123 14.3711C123.227 15.7598 121.961 16.7969 120.326 17.4648L126.408 26.5H119.535ZM109.832 6.63672L109.814 12.9824H116.072C117.109 12.9824 117.971 12.666 118.639 12.0508C119.307 11.4355 119.641 10.6797 119.641 9.7832C119.641 8.92188 119.324 8.18359 118.674 7.56836C118.023 6.95312 117.25 6.63672 116.336 6.63672H109.832ZM144.883 26.5L139.504 18.2207H135.18V26.5H129.273V1.29297H141.877C144.531 1.29297 146.693 2.1543 148.346 3.87695C149.998 5.59961 150.824 7.56836 150.824 9.80078C150.824 11.4531 150.367 12.9824 149.471 14.3711C148.574 15.7598 147.309 16.7969 145.674 17.4648L151.756 26.5H144.883ZM135.18 6.63672L135.162 12.9824H141.42C142.457 12.9824 143.318 12.666 143.986 12.0508C144.654 11.4355 144.988 10.6797 144.988 9.7832C144.988 8.92188 144.672 8.18359 144.021 7.56836C143.371 6.95312 142.598 6.63672 141.684 6.63672H135.18ZM169.211 1.29297H175.908L166.521 17.4297V26.5H160.475V17.4297L151.035 1.29297H157.768L163.498 11.5938L169.211 1.29297ZM6.13867 64.0332H17.9863V69.5H0.162109V44.293H6.13867V64.0332ZM32.5059 70.0098V70.0449C28.6738 70.0449 25.4922 68.7969 22.9609 66.3008C20.4297 63.8047 19.1641 60.6758 19.1641 56.9316C19.1641 53.1875 20.4297 50.0586 22.9609 47.5625C25.4922 45.0664 28.6738 43.8184 32.5059 43.8184C36.3379 43.8184 39.5195 45.0664 42.0508 47.5625C44.582 50.0586 45.8477 53.1699 45.8477 56.9141C45.8477 60.6582 44.582 63.7695 42.0508 66.2656C39.5195 68.7617 36.3379 70.0098 32.5059 70.0098ZM32.5059 64.5254C34.6855 64.5254 36.4434 63.8047 37.7793 62.3633C39.1152 60.9219 39.7832 59.1113 39.7832 56.9316C39.7832 54.752 39.1152 52.9414 37.7793 51.5C36.4434 50.0586 34.6855 49.3379 32.5059 49.3379C30.3262 49.3379 28.5684 50.0586 27.2324 51.5C25.8965 52.9414 25.2285 54.752 25.2285 56.9316C25.2285 59.1113 25.8965 60.9219 27.2324 62.3633C28.5684 63.8047 30.3262 64.5254 32.5059 64.5254ZM74.623 55.1738L74.5879 58.1445C74.5879 61.6074 73.4102 64.4375 71.0547 66.6523C68.6992 68.8672 65.6055 69.9746 61.7734 69.9746C57.8535 69.9746 54.6191 68.7266 52.0527 66.2129C49.4863 63.6992 48.2031 60.5879 48.2031 56.8613C48.2031 53.1348 49.4688 50.0234 52.0176 47.5098C54.5664 44.9961 57.7129 43.748 61.4746 43.748C64.5156 43.748 67.1172 44.4863 69.2617 45.9805C71.4062 47.4746 72.9004 49.3379 73.7441 51.5703L68.1895 53.1523C66.8711 50.6387 64.6562 49.373 61.5449 49.373C59.418 49.373 57.6777 50.0938 56.3066 51.5352C54.9355 52.9766 54.25 54.7344 54.25 56.8262C54.25 58.918 54.9531 60.7109 56.3594 62.2051C57.7656 63.6992 59.7344 64.4375 62.248 64.4375C63.9531 64.4375 65.3242 64.0332 66.3789 63.2246C67.4336 62.416 68.084 61.4316 68.3477 60.2891L61.7383 60.3242V55.1738H74.623ZM77.9629 69.5V44.293H84.0098V69.5H77.9629ZM98.916 70.0098L98.9336 70.1152C95.9629 70.1152 93.4492 69.377 91.3926 67.9004C89.3359 66.4238 87.9121 64.6133 87.1211 62.4688L92.8164 60.7109C93.3262 61.959 94.1348 62.9609 95.2598 63.7344C96.3848 64.5078 97.7383 64.8945 99.3203 64.8945C100.498 64.8945 101.447 64.666 102.168 64.1914C102.889 63.7168 103.258 63.1543 103.258 62.5039C103.258 61.4668 102.361 60.6582 100.551 60.0781L94.0645 58.0742C92.3066 57.5293 90.9004 56.668 89.8457 55.5078C88.791 54.3477 88.2812 52.9766 88.2988 51.3945C88.2812 49.3027 89.1602 47.5273 90.9355 46.0684C92.7109 44.6094 94.9434 43.8711 97.6328 43.8711C100.287 43.8711 102.643 44.5039 104.682 45.7871C106.721 47.0703 108.092 48.6348 108.777 50.4805L103.275 52.0977C102.766 51.2012 102.01 50.4805 101.008 49.918C100.006 49.3555 98.8984 49.0742 97.6855 49.0742C96.6836 49.0742 95.875 49.2676 95.2598 49.6543C94.6445 50.041 94.3457 50.5332 94.3457 51.1309C94.3457 51.9922 94.9082 52.5898 96.0332 52.9238L102.379 54.9453C104.576 55.6309 106.281 56.4922 107.477 57.5293C108.672 58.5664 109.27 60.0605 109.27 62.0117C109.27 64.2969 108.32 66.1953 106.404 67.7246C104.488 69.2539 101.992 70.0098 98.916 70.0098ZM131.453 44.293V49.707H123.42V69.5H117.443V49.707H109.428V44.293H131.453ZM134.143 69.5V44.293H140.189V69.5H134.143ZM156.854 70.0098H156.801C152.986 70.0098 149.822 68.7617 147.291 66.2656C144.76 63.7695 143.494 60.6406 143.494 56.8965C143.494 53.1875 144.76 50.0762 147.273 47.5625C149.787 45.0488 152.934 43.8008 156.695 43.8008C160.035 43.8008 162.795 44.6445 164.975 46.3496C167.154 48.0547 168.525 50.0234 169.07 52.2559L163.234 53.6973C162.9 52.5547 162.145 51.5527 160.967 50.6914C159.789 49.8301 158.383 49.4082 156.748 49.4082C154.621 49.4082 152.898 50.1289 151.598 51.5703C150.297 53.0117 149.646 54.7695 149.646 56.8613C149.646 58.918 150.314 60.6934 151.633 62.1699C152.951 63.6465 154.674 64.3848 156.783 64.3848C158.436 64.3848 159.842 63.9629 161.002 63.1367C162.162 62.3105 162.918 61.3262 163.252 60.1836L169.088 61.6602C168.543 63.8574 167.189 65.791 165.027 67.4785C162.865 69.166 160.141 70.0098 156.854 70.0098ZM182.588 70.0098L182.605 70.1152C179.635 70.1152 177.121 69.377 175.064 67.9004C173.008 66.4238 171.584 64.6133 170.793 62.4688L176.488 60.7109C176.998 61.959 177.807 62.9609 178.932 63.7344C180.057 64.5078 181.41 64.8945 182.992 64.8945C184.17 64.8945 185.119 64.666 185.84 64.1914C186.561 63.7168 186.93 63.1543 186.93 62.5039C186.93 61.4668 186.033 60.6582 184.223 60.0781L177.736 58.0742C175.979 57.5293 174.572 56.668 173.518 55.5078C172.463 54.3477 171.953 52.9766 171.971 51.3945C171.953 49.3027 172.832 47.5273 174.607 46.0684C176.383 44.6094 178.615 43.8711 181.305 43.8711C183.959 43.8711 186.314 44.5039 188.354 45.7871C190.393 47.0703 191.764 48.6348 192.449 50.4805L186.947 52.0977C186.438 51.2012 185.682 50.4805 184.68 49.918C183.678 49.3555 182.57 49.0742 181.357 49.0742C180.355 49.0742 179.547 49.2676 178.932 49.6543C178.316 50.041 178.018 50.5332 178.018 51.1309C178.018 51.9922 178.58 52.5898 179.705 52.9238L186.051 54.9453C188.248 55.6309 189.953 56.4922 191.148 57.5293C192.344 58.5664 192.941 60.0605 192.941 62.0117C192.941 64.2969 191.992 66.1953 190.076 67.7246C188.16 69.2539 185.664 70.0098 182.588 70.0098Z" fill="white"/>
</svg>
