<svg width="40" height="59" viewBox="0 0 40 59" fill="none" xmlns="http://www.w3.org/2000/svg">
<path d="M29.727 29.4744C32.3657 26.8258 34 23.1702 34 19.129C34 11.0465 27.4663 4.5 19.4072 4.5H0V33.758H18.6036C21.7088 33.758 24.2215 36.2803 24.2215 39.3898C24.2215 40.9462 23.595 42.3524 22.577 43.373C21.559 44.3867 20.1562 45.0215 18.6036 45.0215H9.19287V54.5H19.4072C23.4384 54.5 27.0849 52.8651 29.727 50.2164C32.3657 47.5746 34 43.9157 34 39.8778C34 35.84 32.3555 32.1538 29.6964 29.5017C29.7066 29.4949 29.7168 29.4846 29.727 29.4744ZM22.1446 22.1633C21.2185 23.0917 19.9417 23.6651 18.5321 23.6651H9.19287V13.4255H18.5321C21.3513 13.4255 23.6393 15.7158 23.6393 18.5453C23.6393 19.9584 23.0673 21.2383 22.1446 22.1633Z" fill="white"/>
</svg>
