<svg xmlns="http://www.w3.org/2000/svg" width="27" height="40" viewBox="0 0 27 40" fill="none">
  <path d="M19.78 19.989C21.5358 18.2023 22.6232 15.7364 22.6232 13.0103C22.6232 7.55815 18.2758 3.14209 12.9133 3.14209H0V22.8785H12.3787C14.4448 22.8785 16.1167 24.58 16.1167 26.6775C16.1167 27.7275 15.6999 28.6761 15.0225 29.3645C14.3451 30.0483 13.4117 30.4766 12.3787 30.4766H6.11684V36.8704H12.9133C15.5957 36.8704 18.022 35.7675 19.78 33.9809C21.5358 32.1988 22.6232 29.7306 22.6232 27.0068C22.6232 24.283 21.529 21.7964 19.7597 20.0074C19.7665 20.0028 19.7732 19.9959 19.78 19.989ZM14.7348 15.0572C14.1186 15.6834 13.269 16.0702 12.3311 16.0702H6.11684V9.16295H12.3311C14.2069 9.16295 15.7293 10.7079 15.7293 12.6166C15.7293 13.5698 15.3487 14.4332 14.7348 15.0572Z" fill="#171923"/>
</svg>